<svg xmlns="http://www.w3.org/2000/svg" width="1600" height="900" viewBox="0 0 1600 900"><rect width="1600" height="900" fill="#F97316"/><g transform="translate(0 0)"><g opacity="0.32"><g transform="rotate(0 80.0 80.0) translate(23.16 75.52) scale(0.6303)"><path d="M43 16 C30 18 23.6 28 23.6 37 L23.6 62 C23.6 74 33 82 52 82 L50 82 C45 79 43 72 43 64 Z" fill="#C2410C"/><path d="M43 64.6 L81.3 64.6 C80 76 72 82 62 82 L50 82 C45 79 43 72 43 64.6 Z" fill="#FDBA74"/></g><g transform="rotate(90 80.0 80.0) translate(23.16 75.52) scale(0.6303)"><path d="M43 16 C30 18 23.6 28 23.6 37 L23.6 62 C23.6 74 33 82 52 82 L50 82 C45 79 43 72 43 64 Z" fill="#C2410C"/><path d="M43 64.6 L81.3 64.6 C80 76 72 82 62 82 L50 82 C45 79 43 72 43 64.6 Z" fill="#FDBA74"/></g><g transform="rotate(180 80.0 80.0) translate(23.16 75.52) scale(0.6303)"><path d="M43 16 C30 18 23.6 28 23.6 37 L23.6 62 C23.6 74 33 82 52 82 L50 82 C45 79 43 72 43 64 Z" fill="#C2410C"/><path d="M43 64.6 L81.3 64.6 C80 76 72 82 62 82 L50 82 C45 79 43 72 43 64.6 Z" fill="#FDBA74"/></g><g transform="rotate(270 80.0 80.0) translate(23.16 75.52) scale(0.6303)"><path d="M43 16 C30 18 23.6 28 23.6 37 L23.6 62 C23.6 74 33 82 52 82 L50 82 C45 79 43 72 43 64 Z" fill="#C2410C"/><path d="M43 64.6 L81.3 64.6 C80 76 72 82 62 82 L50 82 C45 79 43 72 43 64.6 Z" fill="#FDBA74"/></g></g></g><g transform="translate(0 160)"><g opacity="0.32"><g transform="rotate(0 80.0 80.0) translate(23.16 75.52) scale(0.6303)"><path d="M43 16 C30 18 23.6 28 23.6 37 L23.6 62 C23.6 74 33 82 52 82 L50 82 C45 79 43 72 43 64 Z" fill="#C2410C"/><path d="M43 64.6 L81.3 64.6 C80 76 72 82 62 82 L50 82 C45 79 43 72 43 64.6 Z" fill="#FDBA74"/></g><g transform="rotate(90 80.0 80.0) translate(23.16 75.52) scale(0.6303)"><path d="M43 16 C30 18 23.6 28 23.6 37 L23.6 62 C23.6 74 33 82 52 82 L50 82 C45 79 43 72 43 64 Z" fill="#C2410C"/><path d="M43 64.6 L81.3 64.6 C80 76 72 82 62 82 L50 82 C45 79 43 72 43 64.6 Z" fill="#FDBA74"/></g><g transform="rotate(180 80.0 80.0) translate(23.16 75.52) scale(0.6303)"><path d="M43 16 C30 18 23.6 28 23.6 37 L23.6 62 C23.6 74 33 82 52 82 L50 82 C45 79 43 72 43 64 Z" fill="#C2410C"/><path d="M43 64.6 L81.3 64.6 C80 76 72 82 62 82 L50 82 C45 79 43 72 43 64.6 Z" fill="#FDBA74"/></g><g transform="rotate(270 80.0 80.0) translate(23.16 75.52) scale(0.6303)"><path d="M43 16 C30 18 23.6 28 23.6 37 L23.6 62 C23.6 74 33 82 52 82 L50 82 C45 79 43 72 43 64 Z" fill="#C2410C"/><path d="M43 64.6 L81.3 64.6 C80 76 72 82 62 82 L50 82 C45 79 43 72 43 64.6 Z" fill="#FDBA74"/></g></g></g><g transform="translate(0 320)"><g opacity="0.32"><g transform="rotate(0 80.0 80.0) translate(23.16 75.52) scale(0.6303)"><path d="M43 16 C30 18 23.6 28 23.6 37 L23.6 62 C23.6 74 33 82 52 82 L50 82 C45 79 43 72 43 64 Z" fill="#C2410C"/><path d="M43 64.6 L81.3 64.6 C80 76 72 82 62 82 L50 82 C45 79 43 72 43 64.6 Z" fill="#FDBA74"/></g><g transform="rotate(90 80.0 80.0) translate(23.16 75.52) scale(0.6303)"><path d="M43 16 C30 18 23.6 28 23.6 37 L23.6 62 C23.6 74 33 82 52 82 L50 82 C45 79 43 72 43 64 Z" fill="#C2410C"/><path d="M43 64.6 L81.3 64.6 C80 76 72 82 62 82 L50 82 C45 79 43 72 43 64.6 Z" fill="#FDBA74"/></g><g transform="rotate(180 80.0 80.0) translate(23.16 75.52) scale(0.6303)"><path d="M43 16 C30 18 23.6 28 23.6 37 L23.6 62 C23.6 74 33 82 52 82 L50 82 C45 79 43 72 43 64 Z" fill="#C2410C"/><path d="M43 64.6 L81.3 64.6 C80 76 72 82 62 82 L50 82 C45 79 43 72 43 64.6 Z" fill="#FDBA74"/></g><g transform="rotate(270 80.0 80.0) translate(23.16 75.52) scale(0.6303)"><path d="M43 16 C30 18 23.6 28 23.6 37 L23.6 62 C23.6 74 33 82 52 82 L50 82 C45 79 43 72 43 64 Z" fill="#C2410C"/><path d="M43 64.6 L81.3 64.6 C80 76 72 82 62 82 L50 82 C45 79 43 72 43 64.6 Z" fill="#FDBA74"/></g></g></g><g transform="translate(0 480)"><g opacity="0.32"><g transform="rotate(0 80.0 80.0) translate(23.16 75.52) scale(0.6303)"><path d="M43 16 C30 18 23.6 28 23.6 37 L23.6 62 C23.6 74 33 82 52 82 L50 82 C45 79 43 72 43 64 Z" fill="#C2410C"/><path d="M43 64.6 L81.3 64.6 C80 76 72 82 62 82 L50 82 C45 79 43 72 43 64.6 Z" fill="#FDBA74"/></g><g transform="rotate(90 80.0 80.0) translate(23.16 75.52) scale(0.6303)"><path d="M43 16 C30 18 23.6 28 23.6 37 L23.6 62 C23.6 74 33 82 52 82 L50 82 C45 79 43 72 43 64 Z" fill="#C2410C"/><path d="M43 64.6 L81.3 64.6 C80 76 72 82 62 82 L50 82 C45 79 43 72 43 64.6 Z" fill="#FDBA74"/></g><g transform="rotate(180 80.0 80.0) translate(23.16 75.52) scale(0.6303)"><path d="M43 16 C30 18 23.6 28 23.6 37 L23.6 62 C23.6 74 33 82 52 82 L50 82 C45 79 43 72 43 64 Z" fill="#C2410C"/><path d="M43 64.6 L81.3 64.6 C80 76 72 82 62 82 L50 82 C45 79 43 72 43 64.6 Z" fill="#FDBA74"/></g><g transform="rotate(270 80.0 80.0) translate(23.16 75.52) scale(0.6303)"><path d="M43 16 C30 18 23.6 28 23.6 37 L23.6 62 C23.6 74 33 82 52 82 L50 82 C45 79 43 72 43 64 Z" fill="#C2410C"/><path d="M43 64.6 L81.3 64.6 C80 76 72 82 62 82 L50 82 C45 79 43 72 43 64.6 Z" fill="#FDBA74"/></g></g></g><g transform="translate(0 640)"><g opacity="0.32"><g transform="rotate(0 80.0 80.0) translate(23.16 75.52) scale(0.6303)"><path d="M43 16 C30 18 23.6 28 23.6 37 L23.6 62 C23.6 74 33 82 52 82 L50 82 C45 79 43 72 43 64 Z" fill="#C2410C"/><path d="M43 64.6 L81.3 64.6 C80 76 72 82 62 82 L50 82 C45 79 43 72 43 64.6 Z" fill="#FDBA74"/></g><g transform="rotate(90 80.0 80.0) translate(23.16 75.52) scale(0.6303)"><path d="M43 16 C30 18 23.6 28 23.6 37 L23.6 62 C23.6 74 33 82 52 82 L50 82 C45 79 43 72 43 64 Z" fill="#C2410C"/><path d="M43 64.6 L81.3 64.6 C80 76 72 82 62 82 L50 82 C45 79 43 72 43 64.6 Z" fill="#FDBA74"/></g><g transform="rotate(180 80.0 80.0) translate(23.16 75.52) scale(0.6303)"><path d="M43 16 C30 18 23.6 28 23.6 37 L23.6 62 C23.6 74 33 82 52 82 L50 82 C45 79 43 72 43 64 Z" fill="#C2410C"/><path d="M43 64.6 L81.3 64.6 C80 76 72 82 62 82 L50 82 C45 79 43 72 43 64.6 Z" fill="#FDBA74"/></g><g transform="rotate(270 80.0 80.0) translate(23.16 75.52) scale(0.6303)"><path d="M43 16 C30 18 23.6 28 23.6 37 L23.6 62 C23.6 74 33 82 52 82 L50 82 C45 79 43 72 43 64 Z" fill="#C2410C"/><path d="M43 64.6 L81.3 64.6 C80 76 72 82 62 82 L50 82 C45 79 43 72 43 64.6 Z" fill="#FDBA74"/></g></g></g><g transform="translate(0 800)"><g opacity="0.32"><g transform="rotate(0 80.0 80.0) translate(23.16 75.52) scale(0.6303)"><path d="M43 16 C30 18 23.6 28 23.6 37 L23.6 62 C23.6 74 33 82 52 82 L50 82 C45 79 43 72 43 64 Z" fill="#C2410C"/><path d="M43 64.6 L81.3 64.6 C80 76 72 82 62 82 L50 82 C45 79 43 72 43 64.6 Z" fill="#FDBA74"/></g><g transform="rotate(90 80.0 80.0) translate(23.16 75.52) scale(0.6303)"><path d="M43 16 C30 18 23.6 28 23.6 37 L23.6 62 C23.6 74 33 82 52 82 L50 82 C45 79 43 72 43 64 Z" fill="#C2410C"/><path d="M43 64.6 L81.3 64.6 C80 76 72 82 62 82 L50 82 C45 79 43 72 43 64.6 Z" fill="#FDBA74"/></g><g transform="rotate(180 80.0 80.0) translate(23.16 75.52) scale(0.6303)"><path d="M43 16 C30 18 23.6 28 23.6 37 L23.6 62 C23.6 74 33 82 52 82 L50 82 C45 79 43 72 43 64 Z" fill="#C2410C"/><path d="M43 64.6 L81.3 64.6 C80 76 72 82 62 82 L50 82 C45 79 43 72 43 64.6 Z" fill="#FDBA74"/></g><g transform="rotate(270 80.0 80.0) translate(23.16 75.52) scale(0.6303)"><path d="M43 16 C30 18 23.6 28 23.6 37 L23.6 62 C23.6 74 33 82 52 82 L50 82 C45 79 43 72 43 64 Z" fill="#C2410C"/><path d="M43 64.6 L81.3 64.6 C80 76 72 82 62 82 L50 82 C45 79 43 72 43 64.6 Z" fill="#FDBA74"/></g></g></g><g transform="translate(160 0)"><g opacity="0.32"><g transform="rotate(0 80.0 80.0) translate(23.16 75.52) scale(0.6303)"><path d="M43 16 C30 18 23.6 28 23.6 37 L23.6 62 C23.6 74 33 82 52 82 L50 82 C45 79 43 72 43 64 Z" fill="#C2410C"/><path d="M43 64.6 L81.3 64.6 C80 76 72 82 62 82 L50 82 C45 79 43 72 43 64.6 Z" fill="#FDBA74"/></g><g transform="rotate(90 80.0 80.0) translate(23.16 75.52) scale(0.6303)"><path d="M43 16 C30 18 23.6 28 23.6 37 L23.6 62 C23.6 74 33 82 52 82 L50 82 C45 79 43 72 43 64 Z" fill="#C2410C"/><path d="M43 64.6 L81.3 64.6 C80 76 72 82 62 82 L50 82 C45 79 43 72 43 64.6 Z" fill="#FDBA74"/></g><g transform="rotate(180 80.0 80.0) translate(23.16 75.52) scale(0.6303)"><path d="M43 16 C30 18 23.6 28 23.6 37 L23.6 62 C23.6 74 33 82 52 82 L50 82 C45 79 43 72 43 64 Z" fill="#C2410C"/><path d="M43 64.6 L81.3 64.6 C80 76 72 82 62 82 L50 82 C45 79 43 72 43 64.6 Z" fill="#FDBA74"/></g><g transform="rotate(270 80.0 80.0) translate(23.16 75.52) scale(0.6303)"><path d="M43 16 C30 18 23.6 28 23.6 37 L23.6 62 C23.6 74 33 82 52 82 L50 82 C45 79 43 72 43 64 Z" fill="#C2410C"/><path d="M43 64.6 L81.3 64.6 C80 76 72 82 62 82 L50 82 C45 79 43 72 43 64.6 Z" fill="#FDBA74"/></g></g></g><g transform="translate(160 160)"><g opacity="0.32"><g transform="rotate(0 80.0 80.0) translate(23.16 75.52) scale(0.6303)"><path d="M43 16 C30 18 23.6 28 23.6 37 L23.6 62 C23.6 74 33 82 52 82 L50 82 C45 79 43 72 43 64 Z" fill="#C2410C"/><path d="M43 64.6 L81.3 64.6 C80 76 72 82 62 82 L50 82 C45 79 43 72 43 64.6 Z" fill="#FDBA74"/></g><g transform="rotate(90 80.0 80.0) translate(23.16 75.52) scale(0.6303)"><path d="M43 16 C30 18 23.6 28 23.6 37 L23.6 62 C23.6 74 33 82 52 82 L50 82 C45 79 43 72 43 64 Z" fill="#C2410C"/><path d="M43 64.6 L81.3 64.6 C80 76 72 82 62 82 L50 82 C45 79 43 72 43 64.6 Z" fill="#FDBA74"/></g><g transform="rotate(180 80.0 80.0) translate(23.16 75.52) scale(0.6303)"><path d="M43 16 C30 18 23.6 28 23.6 37 L23.6 62 C23.6 74 33 82 52 82 L50 82 C45 79 43 72 43 64 Z" fill="#C2410C"/><path d="M43 64.6 L81.3 64.6 C80 76 72 82 62 82 L50 82 C45 79 43 72 43 64.6 Z" fill="#FDBA74"/></g><g transform="rotate(270 80.0 80.0) translate(23.16 75.52) scale(0.6303)"><path d="M43 16 C30 18 23.6 28 23.6 37 L23.6 62 C23.6 74 33 82 52 82 L50 82 C45 79 43 72 43 64 Z" fill="#C2410C"/><path d="M43 64.6 L81.3 64.6 C80 76 72 82 62 82 L50 82 C45 79 43 72 43 64.6 Z" fill="#FDBA74"/></g></g></g><g transform="translate(160 320)"><g opacity="0.32"><g transform="rotate(0 80.0 80.0) translate(23.16 75.52) scale(0.6303)"><path d="M43 16 C30 18 23.6 28 23.6 37 L23.6 62 C23.6 74 33 82 52 82 L50 82 C45 79 43 72 43 64 Z" fill="#C2410C"/><path d="M43 64.6 L81.3 64.6 C80 76 72 82 62 82 L50 82 C45 79 43 72 43 64.6 Z" fill="#FDBA74"/></g><g transform="rotate(90 80.0 80.0) translate(23.16 75.52) scale(0.6303)"><path d="M43 16 C30 18 23.6 28 23.6 37 L23.6 62 C23.6 74 33 82 52 82 L50 82 C45 79 43 72 43 64 Z" fill="#C2410C"/><path d="M43 64.6 L81.3 64.6 C80 76 72 82 62 82 L50 82 C45 79 43 72 43 64.6 Z" fill="#FDBA74"/></g><g transform="rotate(180 80.0 80.0) translate(23.16 75.52) scale(0.6303)"><path d="M43 16 C30 18 23.6 28 23.6 37 L23.6 62 C23.6 74 33 82 52 82 L50 82 C45 79 43 72 43 64 Z" fill="#C2410C"/><path d="M43 64.6 L81.3 64.6 C80 76 72 82 62 82 L50 82 C45 79 43 72 43 64.6 Z" fill="#FDBA74"/></g><g transform="rotate(270 80.0 80.0) translate(23.16 75.52) scale(0.6303)"><path d="M43 16 C30 18 23.6 28 23.6 37 L23.6 62 C23.6 74 33 82 52 82 L50 82 C45 79 43 72 43 64 Z" fill="#C2410C"/><path d="M43 64.6 L81.3 64.6 C80 76 72 82 62 82 L50 82 C45 79 43 72 43 64.6 Z" fill="#FDBA74"/></g></g></g><g transform="translate(160 480)"><g opacity="0.32"><g transform="rotate(0 80.0 80.0) translate(23.16 75.52) scale(0.6303)"><path d="M43 16 C30 18 23.6 28 23.6 37 L23.6 62 C23.6 74 33 82 52 82 L50 82 C45 79 43 72 43 64 Z" fill="#C2410C"/><path d="M43 64.6 L81.3 64.6 C80 76 72 82 62 82 L50 82 C45 79 43 72 43 64.6 Z" fill="#FDBA74"/></g><g transform="rotate(90 80.0 80.0) translate(23.16 75.52) scale(0.6303)"><path d="M43 16 C30 18 23.6 28 23.6 37 L23.6 62 C23.6 74 33 82 52 82 L50 82 C45 79 43 72 43 64 Z" fill="#C2410C"/><path d="M43 64.6 L81.3 64.6 C80 76 72 82 62 82 L50 82 C45 79 43 72 43 64.6 Z" fill="#FDBA74"/></g><g transform="rotate(180 80.0 80.0) translate(23.16 75.52) scale(0.6303)"><path d="M43 16 C30 18 23.6 28 23.6 37 L23.6 62 C23.6 74 33 82 52 82 L50 82 C45 79 43 72 43 64 Z" fill="#C2410C"/><path d="M43 64.6 L81.3 64.6 C80 76 72 82 62 82 L50 82 C45 79 43 72 43 64.6 Z" fill="#FDBA74"/></g><g transform="rotate(270 80.0 80.0) translate(23.16 75.52) scale(0.6303)"><path d="M43 16 C30 18 23.6 28 23.6 37 L23.6 62 C23.6 74 33 82 52 82 L50 82 C45 79 43 72 43 64 Z" fill="#C2410C"/><path d="M43 64.6 L81.3 64.6 C80 76 72 82 62 82 L50 82 C45 79 43 72 43 64.6 Z" fill="#FDBA74"/></g></g></g><g transform="translate(160 640)"><g opacity="0.32"><g transform="rotate(0 80.0 80.0) translate(23.16 75.52) scale(0.6303)"><path d="M43 16 C30 18 23.6 28 23.6 37 L23.6 62 C23.6 74 33 82 52 82 L50 82 C45 79 43 72 43 64 Z" fill="#C2410C"/><path d="M43 64.6 L81.3 64.6 C80 76 72 82 62 82 L50 82 C45 79 43 72 43 64.6 Z" fill="#FDBA74"/></g><g transform="rotate(90 80.0 80.0) translate(23.16 75.52) scale(0.6303)"><path d="M43 16 C30 18 23.6 28 23.6 37 L23.6 62 C23.6 74 33 82 52 82 L50 82 C45 79 43 72 43 64 Z" fill="#C2410C"/><path d="M43 64.6 L81.3 64.6 C80 76 72 82 62 82 L50 82 C45 79 43 72 43 64.6 Z" fill="#FDBA74"/></g><g transform="rotate(180 80.0 80.0) translate(23.16 75.52) scale(0.6303)"><path d="M43 16 C30 18 23.6 28 23.6 37 L23.6 62 C23.6 74 33 82 52 82 L50 82 C45 79 43 72 43 64 Z" fill="#C2410C"/><path d="M43 64.6 L81.3 64.6 C80 76 72 82 62 82 L50 82 C45 79 43 72 43 64.6 Z" fill="#FDBA74"/></g><g transform="rotate(270 80.0 80.0) translate(23.16 75.52) scale(0.6303)"><path d="M43 16 C30 18 23.6 28 23.6 37 L23.6 62 C23.6 74 33 82 52 82 L50 82 C45 79 43 72 43 64 Z" fill="#C2410C"/><path d="M43 64.6 L81.3 64.6 C80 76 72 82 62 82 L50 82 C45 79 43 72 43 64.6 Z" fill="#FDBA74"/></g></g></g><g transform="translate(160 800)"><g opacity="0.32"><g transform="rotate(0 80.0 80.0) translate(23.16 75.52) scale(0.6303)"><path d="M43 16 C30 18 23.6 28 23.6 37 L23.6 62 C23.6 74 33 82 52 82 L50 82 C45 79 43 72 43 64 Z" fill="#C2410C"/><path d="M43 64.6 L81.3 64.6 C80 76 72 82 62 82 L50 82 C45 79 43 72 43 64.6 Z" fill="#FDBA74"/></g><g transform="rotate(90 80.0 80.0) translate(23.16 75.52) scale(0.6303)"><path d="M43 16 C30 18 23.6 28 23.6 37 L23.6 62 C23.6 74 33 82 52 82 L50 82 C45 79 43 72 43 64 Z" fill="#C2410C"/><path d="M43 64.6 L81.3 64.6 C80 76 72 82 62 82 L50 82 C45 79 43 72 43 64.6 Z" fill="#FDBA74"/></g><g transform="rotate(180 80.0 80.0) translate(23.16 75.52) scale(0.6303)"><path d="M43 16 C30 18 23.6 28 23.6 37 L23.6 62 C23.6 74 33 82 52 82 L50 82 C45 79 43 72 43 64 Z" fill="#C2410C"/><path d="M43 64.6 L81.3 64.6 C80 76 72 82 62 82 L50 82 C45 79 43 72 43 64.6 Z" fill="#FDBA74"/></g><g transform="rotate(270 80.0 80.0) translate(23.16 75.52) scale(0.6303)"><path d="M43 16 C30 18 23.6 28 23.6 37 L23.6 62 C23.6 74 33 82 52 82 L50 82 C45 79 43 72 43 64 Z" fill="#C2410C"/><path d="M43 64.6 L81.3 64.6 C80 76 72 82 62 82 L50 82 C45 79 43 72 43 64.6 Z" fill="#FDBA74"/></g></g></g><g transform="translate(320 0)"><g opacity="0.32"><g transform="rotate(0 80.0 80.0) translate(23.16 75.52) scale(0.6303)"><path d="M43 16 C30 18 23.6 28 23.6 37 L23.6 62 C23.6 74 33 82 52 82 L50 82 C45 79 43 72 43 64 Z" fill="#C2410C"/><path d="M43 64.6 L81.3 64.6 C80 76 72 82 62 82 L50 82 C45 79 43 72 43 64.6 Z" fill="#FDBA74"/></g><g transform="rotate(90 80.0 80.0) translate(23.16 75.52) scale(0.6303)"><path d="M43 16 C30 18 23.6 28 23.6 37 L23.6 62 C23.6 74 33 82 52 82 L50 82 C45 79 43 72 43 64 Z" fill="#C2410C"/><path d="M43 64.6 L81.3 64.6 C80 76 72 82 62 82 L50 82 C45 79 43 72 43 64.6 Z" fill="#FDBA74"/></g><g transform="rotate(180 80.0 80.0) translate(23.16 75.52) scale(0.6303)"><path d="M43 16 C30 18 23.6 28 23.6 37 L23.6 62 C23.6 74 33 82 52 82 L50 82 C45 79 43 72 43 64 Z" fill="#C2410C"/><path d="M43 64.6 L81.3 64.6 C80 76 72 82 62 82 L50 82 C45 79 43 72 43 64.6 Z" fill="#FDBA74"/></g><g transform="rotate(270 80.0 80.0) translate(23.16 75.52) scale(0.6303)"><path d="M43 16 C30 18 23.6 28 23.6 37 L23.6 62 C23.6 74 33 82 52 82 L50 82 C45 79 43 72 43 64 Z" fill="#C2410C"/><path d="M43 64.6 L81.3 64.6 C80 76 72 82 62 82 L50 82 C45 79 43 72 43 64.6 Z" fill="#FDBA74"/></g></g></g><g transform="translate(320 160)"><g opacity="0.32"><g transform="rotate(0 80.0 80.0) translate(23.16 75.52) scale(0.6303)"><path d="M43 16 C30 18 23.6 28 23.6 37 L23.6 62 C23.6 74 33 82 52 82 L50 82 C45 79 43 72 43 64 Z" fill="#C2410C"/><path d="M43 64.6 L81.3 64.6 C80 76 72 82 62 82 L50 82 C45 79 43 72 43 64.6 Z" fill="#FDBA74"/></g><g transform="rotate(90 80.0 80.0) translate(23.16 75.52) scale(0.6303)"><path d="M43 16 C30 18 23.6 28 23.6 37 L23.6 62 C23.6 74 33 82 52 82 L50 82 C45 79 43 72 43 64 Z" fill="#C2410C"/><path d="M43 64.6 L81.3 64.6 C80 76 72 82 62 82 L50 82 C45 79 43 72 43 64.6 Z" fill="#FDBA74"/></g><g transform="rotate(180 80.0 80.0) translate(23.16 75.52) scale(0.6303)"><path d="M43 16 C30 18 23.6 28 23.6 37 L23.6 62 C23.6 74 33 82 52 82 L50 82 C45 79 43 72 43 64 Z" fill="#C2410C"/><path d="M43 64.6 L81.3 64.6 C80 76 72 82 62 82 L50 82 C45 79 43 72 43 64.6 Z" fill="#FDBA74"/></g><g transform="rotate(270 80.0 80.0) translate(23.16 75.52) scale(0.6303)"><path d="M43 16 C30 18 23.6 28 23.6 37 L23.6 62 C23.6 74 33 82 52 82 L50 82 C45 79 43 72 43 64 Z" fill="#C2410C"/><path d="M43 64.6 L81.3 64.6 C80 76 72 82 62 82 L50 82 C45 79 43 72 43 64.6 Z" fill="#FDBA74"/></g></g></g><g transform="translate(320 320)"><g opacity="0.32"><g transform="rotate(0 80.0 80.0) translate(23.16 75.52) scale(0.6303)"><path d="M43 16 C30 18 23.6 28 23.6 37 L23.6 62 C23.6 74 33 82 52 82 L50 82 C45 79 43 72 43 64 Z" fill="#C2410C"/><path d="M43 64.6 L81.3 64.6 C80 76 72 82 62 82 L50 82 C45 79 43 72 43 64.6 Z" fill="#FDBA74"/></g><g transform="rotate(90 80.0 80.0) translate(23.16 75.52) scale(0.6303)"><path d="M43 16 C30 18 23.6 28 23.6 37 L23.6 62 C23.6 74 33 82 52 82 L50 82 C45 79 43 72 43 64 Z" fill="#C2410C"/><path d="M43 64.6 L81.3 64.6 C80 76 72 82 62 82 L50 82 C45 79 43 72 43 64.6 Z" fill="#FDBA74"/></g><g transform="rotate(180 80.0 80.0) translate(23.16 75.52) scale(0.6303)"><path d="M43 16 C30 18 23.6 28 23.6 37 L23.6 62 C23.6 74 33 82 52 82 L50 82 C45 79 43 72 43 64 Z" fill="#C2410C"/><path d="M43 64.6 L81.3 64.6 C80 76 72 82 62 82 L50 82 C45 79 43 72 43 64.6 Z" fill="#FDBA74"/></g><g transform="rotate(270 80.0 80.0) translate(23.16 75.52) scale(0.6303)"><path d="M43 16 C30 18 23.6 28 23.6 37 L23.6 62 C23.6 74 33 82 52 82 L50 82 C45 79 43 72 43 64 Z" fill="#C2410C"/><path d="M43 64.6 L81.3 64.6 C80 76 72 82 62 82 L50 82 C45 79 43 72 43 64.6 Z" fill="#FDBA74"/></g></g></g><g transform="translate(320 480)"><g opacity="0.32"><g transform="rotate(0 80.0 80.0) translate(23.16 75.52) scale(0.6303)"><path d="M43 16 C30 18 23.6 28 23.6 37 L23.6 62 C23.6 74 33 82 52 82 L50 82 C45 79 43 72 43 64 Z" fill="#C2410C"/><path d="M43 64.6 L81.3 64.6 C80 76 72 82 62 82 L50 82 C45 79 43 72 43 64.6 Z" fill="#FDBA74"/></g><g transform="rotate(90 80.0 80.0) translate(23.16 75.52) scale(0.6303)"><path d="M43 16 C30 18 23.6 28 23.6 37 L23.6 62 C23.6 74 33 82 52 82 L50 82 C45 79 43 72 43 64 Z" fill="#C2410C"/><path d="M43 64.6 L81.3 64.6 C80 76 72 82 62 82 L50 82 C45 79 43 72 43 64.6 Z" fill="#FDBA74"/></g><g transform="rotate(180 80.0 80.0) translate(23.16 75.52) scale(0.6303)"><path d="M43 16 C30 18 23.6 28 23.6 37 L23.6 62 C23.6 74 33 82 52 82 L50 82 C45 79 43 72 43 64 Z" fill="#C2410C"/><path d="M43 64.6 L81.3 64.6 C80 76 72 82 62 82 L50 82 C45 79 43 72 43 64.6 Z" fill="#FDBA74"/></g><g transform="rotate(270 80.0 80.0) translate(23.16 75.52) scale(0.6303)"><path d="M43 16 C30 18 23.6 28 23.6 37 L23.6 62 C23.6 74 33 82 52 82 L50 82 C45 79 43 72 43 64 Z" fill="#C2410C"/><path d="M43 64.6 L81.3 64.6 C80 76 72 82 62 82 L50 82 C45 79 43 72 43 64.6 Z" fill="#FDBA74"/></g></g></g><g transform="translate(320 640)"><g opacity="0.32"><g transform="rotate(0 80.0 80.0) translate(23.16 75.52) scale(0.6303)"><path d="M43 16 C30 18 23.6 28 23.6 37 L23.6 62 C23.6 74 33 82 52 82 L50 82 C45 79 43 72 43 64 Z" fill="#C2410C"/><path d="M43 64.6 L81.3 64.6 C80 76 72 82 62 82 L50 82 C45 79 43 72 43 64.6 Z" fill="#FDBA74"/></g><g transform="rotate(90 80.0 80.0) translate(23.16 75.52) scale(0.6303)"><path d="M43 16 C30 18 23.6 28 23.6 37 L23.6 62 C23.6 74 33 82 52 82 L50 82 C45 79 43 72 43 64 Z" fill="#C2410C"/><path d="M43 64.6 L81.3 64.6 C80 76 72 82 62 82 L50 82 C45 79 43 72 43 64.6 Z" fill="#FDBA74"/></g><g transform="rotate(180 80.0 80.0) translate(23.16 75.52) scale(0.6303)"><path d="M43 16 C30 18 23.6 28 23.6 37 L23.6 62 C23.6 74 33 82 52 82 L50 82 C45 79 43 72 43 64 Z" fill="#C2410C"/><path d="M43 64.6 L81.3 64.6 C80 76 72 82 62 82 L50 82 C45 79 43 72 43 64.6 Z" fill="#FDBA74"/></g><g transform="rotate(270 80.0 80.0) translate(23.16 75.52) scale(0.6303)"><path d="M43 16 C30 18 23.6 28 23.6 37 L23.6 62 C23.6 74 33 82 52 82 L50 82 C45 79 43 72 43 64 Z" fill="#C2410C"/><path d="M43 64.6 L81.3 64.6 C80 76 72 82 62 82 L50 82 C45 79 43 72 43 64.6 Z" fill="#FDBA74"/></g></g></g><g transform="translate(320 800)"><g opacity="0.32"><g transform="rotate(0 80.0 80.0) translate(23.16 75.52) scale(0.6303)"><path d="M43 16 C30 18 23.6 28 23.6 37 L23.6 62 C23.6 74 33 82 52 82 L50 82 C45 79 43 72 43 64 Z" fill="#C2410C"/><path d="M43 64.6 L81.3 64.6 C80 76 72 82 62 82 L50 82 C45 79 43 72 43 64.6 Z" fill="#FDBA74"/></g><g transform="rotate(90 80.0 80.0) translate(23.16 75.52) scale(0.6303)"><path d="M43 16 C30 18 23.6 28 23.6 37 L23.6 62 C23.6 74 33 82 52 82 L50 82 C45 79 43 72 43 64 Z" fill="#C2410C"/><path d="M43 64.6 L81.3 64.6 C80 76 72 82 62 82 L50 82 C45 79 43 72 43 64.6 Z" fill="#FDBA74"/></g><g transform="rotate(180 80.0 80.0) translate(23.16 75.52) scale(0.6303)"><path d="M43 16 C30 18 23.6 28 23.6 37 L23.6 62 C23.6 74 33 82 52 82 L50 82 C45 79 43 72 43 64 Z" fill="#C2410C"/><path d="M43 64.6 L81.3 64.6 C80 76 72 82 62 82 L50 82 C45 79 43 72 43 64.6 Z" fill="#FDBA74"/></g><g transform="rotate(270 80.0 80.0) translate(23.16 75.52) scale(0.6303)"><path d="M43 16 C30 18 23.6 28 23.6 37 L23.6 62 C23.6 74 33 82 52 82 L50 82 C45 79 43 72 43 64 Z" fill="#C2410C"/><path d="M43 64.6 L81.3 64.6 C80 76 72 82 62 82 L50 82 C45 79 43 72 43 64.6 Z" fill="#FDBA74"/></g></g></g><g transform="translate(480 0)"><g opacity="0.32"><g transform="rotate(0 80.0 80.0) translate(23.16 75.52) scale(0.6303)"><path d="M43 16 C30 18 23.6 28 23.6 37 L23.6 62 C23.6 74 33 82 52 82 L50 82 C45 79 43 72 43 64 Z" fill="#C2410C"/><path d="M43 64.6 L81.3 64.6 C80 76 72 82 62 82 L50 82 C45 79 43 72 43 64.6 Z" fill="#FDBA74"/></g><g transform="rotate(90 80.0 80.0) translate(23.16 75.52) scale(0.6303)"><path d="M43 16 C30 18 23.6 28 23.6 37 L23.6 62 C23.6 74 33 82 52 82 L50 82 C45 79 43 72 43 64 Z" fill="#C2410C"/><path d="M43 64.6 L81.3 64.6 C80 76 72 82 62 82 L50 82 C45 79 43 72 43 64.6 Z" fill="#FDBA74"/></g><g transform="rotate(180 80.0 80.0) translate(23.16 75.52) scale(0.6303)"><path d="M43 16 C30 18 23.6 28 23.6 37 L23.6 62 C23.6 74 33 82 52 82 L50 82 C45 79 43 72 43 64 Z" fill="#C2410C"/><path d="M43 64.6 L81.3 64.6 C80 76 72 82 62 82 L50 82 C45 79 43 72 43 64.6 Z" fill="#FDBA74"/></g><g transform="rotate(270 80.0 80.0) translate(23.16 75.52) scale(0.6303)"><path d="M43 16 C30 18 23.6 28 23.6 37 L23.6 62 C23.6 74 33 82 52 82 L50 82 C45 79 43 72 43 64 Z" fill="#C2410C"/><path d="M43 64.6 L81.3 64.6 C80 76 72 82 62 82 L50 82 C45 79 43 72 43 64.6 Z" fill="#FDBA74"/></g></g></g><g transform="translate(480 160)"><g opacity="0.32"><g transform="rotate(0 80.0 80.0) translate(23.16 75.52) scale(0.6303)"><path d="M43 16 C30 18 23.6 28 23.6 37 L23.6 62 C23.6 74 33 82 52 82 L50 82 C45 79 43 72 43 64 Z" fill="#C2410C"/><path d="M43 64.6 L81.3 64.6 C80 76 72 82 62 82 L50 82 C45 79 43 72 43 64.6 Z" fill="#FDBA74"/></g><g transform="rotate(90 80.0 80.0) translate(23.16 75.52) scale(0.6303)"><path d="M43 16 C30 18 23.6 28 23.6 37 L23.6 62 C23.6 74 33 82 52 82 L50 82 C45 79 43 72 43 64 Z" fill="#C2410C"/><path d="M43 64.6 L81.3 64.6 C80 76 72 82 62 82 L50 82 C45 79 43 72 43 64.6 Z" fill="#FDBA74"/></g><g transform="rotate(180 80.0 80.0) translate(23.16 75.52) scale(0.6303)"><path d="M43 16 C30 18 23.6 28 23.6 37 L23.6 62 C23.6 74 33 82 52 82 L50 82 C45 79 43 72 43 64 Z" fill="#C2410C"/><path d="M43 64.6 L81.3 64.6 C80 76 72 82 62 82 L50 82 C45 79 43 72 43 64.6 Z" fill="#FDBA74"/></g><g transform="rotate(270 80.0 80.0) translate(23.16 75.52) scale(0.6303)"><path d="M43 16 C30 18 23.6 28 23.6 37 L23.6 62 C23.6 74 33 82 52 82 L50 82 C45 79 43 72 43 64 Z" fill="#C2410C"/><path d="M43 64.6 L81.3 64.6 C80 76 72 82 62 82 L50 82 C45 79 43 72 43 64.6 Z" fill="#FDBA74"/></g></g></g><g transform="translate(480 320)"><g opacity="0.32"><g transform="rotate(0 80.0 80.0) translate(23.16 75.52) scale(0.6303)"><path d="M43 16 C30 18 23.6 28 23.6 37 L23.6 62 C23.6 74 33 82 52 82 L50 82 C45 79 43 72 43 64 Z" fill="#C2410C"/><path d="M43 64.6 L81.3 64.6 C80 76 72 82 62 82 L50 82 C45 79 43 72 43 64.6 Z" fill="#FDBA74"/></g><g transform="rotate(90 80.0 80.0) translate(23.16 75.52) scale(0.6303)"><path d="M43 16 C30 18 23.6 28 23.6 37 L23.6 62 C23.6 74 33 82 52 82 L50 82 C45 79 43 72 43 64 Z" fill="#C2410C"/><path d="M43 64.6 L81.3 64.6 C80 76 72 82 62 82 L50 82 C45 79 43 72 43 64.6 Z" fill="#FDBA74"/></g><g transform="rotate(180 80.0 80.0) translate(23.16 75.52) scale(0.6303)"><path d="M43 16 C30 18 23.6 28 23.6 37 L23.6 62 C23.6 74 33 82 52 82 L50 82 C45 79 43 72 43 64 Z" fill="#C2410C"/><path d="M43 64.6 L81.3 64.6 C80 76 72 82 62 82 L50 82 C45 79 43 72 43 64.6 Z" fill="#FDBA74"/></g><g transform="rotate(270 80.0 80.0) translate(23.16 75.52) scale(0.6303)"><path d="M43 16 C30 18 23.6 28 23.6 37 L23.6 62 C23.6 74 33 82 52 82 L50 82 C45 79 43 72 43 64 Z" fill="#C2410C"/><path d="M43 64.6 L81.3 64.6 C80 76 72 82 62 82 L50 82 C45 79 43 72 43 64.6 Z" fill="#FDBA74"/></g></g></g><g transform="translate(480 480)"><g opacity="0.32"><g transform="rotate(0 80.0 80.0) translate(23.16 75.52) scale(0.6303)"><path d="M43 16 C30 18 23.6 28 23.6 37 L23.6 62 C23.6 74 33 82 52 82 L50 82 C45 79 43 72 43 64 Z" fill="#C2410C"/><path d="M43 64.6 L81.3 64.6 C80 76 72 82 62 82 L50 82 C45 79 43 72 43 64.6 Z" fill="#FDBA74"/></g><g transform="rotate(90 80.0 80.0) translate(23.16 75.52) scale(0.6303)"><path d="M43 16 C30 18 23.6 28 23.6 37 L23.6 62 C23.6 74 33 82 52 82 L50 82 C45 79 43 72 43 64 Z" fill="#C2410C"/><path d="M43 64.6 L81.3 64.6 C80 76 72 82 62 82 L50 82 C45 79 43 72 43 64.6 Z" fill="#FDBA74"/></g><g transform="rotate(180 80.0 80.0) translate(23.16 75.52) scale(0.6303)"><path d="M43 16 C30 18 23.6 28 23.6 37 L23.6 62 C23.6 74 33 82 52 82 L50 82 C45 79 43 72 43 64 Z" fill="#C2410C"/><path d="M43 64.6 L81.3 64.6 C80 76 72 82 62 82 L50 82 C45 79 43 72 43 64.6 Z" fill="#FDBA74"/></g><g transform="rotate(270 80.0 80.0) translate(23.16 75.52) scale(0.6303)"><path d="M43 16 C30 18 23.6 28 23.6 37 L23.6 62 C23.6 74 33 82 52 82 L50 82 C45 79 43 72 43 64 Z" fill="#C2410C"/><path d="M43 64.6 L81.3 64.6 C80 76 72 82 62 82 L50 82 C45 79 43 72 43 64.6 Z" fill="#FDBA74"/></g></g></g><g transform="translate(480 640)"><g opacity="0.32"><g transform="rotate(0 80.0 80.0) translate(23.16 75.52) scale(0.6303)"><path d="M43 16 C30 18 23.6 28 23.6 37 L23.6 62 C23.6 74 33 82 52 82 L50 82 C45 79 43 72 43 64 Z" fill="#C2410C"/><path d="M43 64.6 L81.3 64.6 C80 76 72 82 62 82 L50 82 C45 79 43 72 43 64.6 Z" fill="#FDBA74"/></g><g transform="rotate(90 80.0 80.0) translate(23.16 75.52) scale(0.6303)"><path d="M43 16 C30 18 23.6 28 23.6 37 L23.6 62 C23.6 74 33 82 52 82 L50 82 C45 79 43 72 43 64 Z" fill="#C2410C"/><path d="M43 64.6 L81.3 64.6 C80 76 72 82 62 82 L50 82 C45 79 43 72 43 64.6 Z" fill="#FDBA74"/></g><g transform="rotate(180 80.0 80.0) translate(23.16 75.52) scale(0.6303)"><path d="M43 16 C30 18 23.6 28 23.6 37 L23.6 62 C23.6 74 33 82 52 82 L50 82 C45 79 43 72 43 64 Z" fill="#C2410C"/><path d="M43 64.6 L81.3 64.6 C80 76 72 82 62 82 L50 82 C45 79 43 72 43 64.6 Z" fill="#FDBA74"/></g><g transform="rotate(270 80.0 80.0) translate(23.16 75.52) scale(0.6303)"><path d="M43 16 C30 18 23.6 28 23.6 37 L23.6 62 C23.6 74 33 82 52 82 L50 82 C45 79 43 72 43 64 Z" fill="#C2410C"/><path d="M43 64.6 L81.3 64.6 C80 76 72 82 62 82 L50 82 C45 79 43 72 43 64.6 Z" fill="#FDBA74"/></g></g></g><g transform="translate(480 800)"><g opacity="0.32"><g transform="rotate(0 80.0 80.0) translate(23.16 75.52) scale(0.6303)"><path d="M43 16 C30 18 23.6 28 23.6 37 L23.6 62 C23.6 74 33 82 52 82 L50 82 C45 79 43 72 43 64 Z" fill="#C2410C"/><path d="M43 64.6 L81.3 64.6 C80 76 72 82 62 82 L50 82 C45 79 43 72 43 64.6 Z" fill="#FDBA74"/></g><g transform="rotate(90 80.0 80.0) translate(23.16 75.52) scale(0.6303)"><path d="M43 16 C30 18 23.6 28 23.6 37 L23.6 62 C23.6 74 33 82 52 82 L50 82 C45 79 43 72 43 64 Z" fill="#C2410C"/><path d="M43 64.6 L81.3 64.6 C80 76 72 82 62 82 L50 82 C45 79 43 72 43 64.6 Z" fill="#FDBA74"/></g><g transform="rotate(180 80.0 80.0) translate(23.16 75.52) scale(0.6303)"><path d="M43 16 C30 18 23.6 28 23.6 37 L23.6 62 C23.6 74 33 82 52 82 L50 82 C45 79 43 72 43 64 Z" fill="#C2410C"/><path d="M43 64.6 L81.3 64.6 C80 76 72 82 62 82 L50 82 C45 79 43 72 43 64.6 Z" fill="#FDBA74"/></g><g transform="rotate(270 80.0 80.0) translate(23.16 75.52) scale(0.6303)"><path d="M43 16 C30 18 23.6 28 23.6 37 L23.6 62 C23.6 74 33 82 52 82 L50 82 C45 79 43 72 43 64 Z" fill="#C2410C"/><path d="M43 64.6 L81.3 64.6 C80 76 72 82 62 82 L50 82 C45 79 43 72 43 64.6 Z" fill="#FDBA74"/></g></g></g><g transform="translate(640 0)"><g opacity="0.32"><g transform="rotate(0 80.0 80.0) translate(23.16 75.52) scale(0.6303)"><path d="M43 16 C30 18 23.6 28 23.6 37 L23.6 62 C23.6 74 33 82 52 82 L50 82 C45 79 43 72 43 64 Z" fill="#C2410C"/><path d="M43 64.6 L81.3 64.6 C80 76 72 82 62 82 L50 82 C45 79 43 72 43 64.6 Z" fill="#FDBA74"/></g><g transform="rotate(90 80.0 80.0) translate(23.16 75.52) scale(0.6303)"><path d="M43 16 C30 18 23.6 28 23.6 37 L23.6 62 C23.6 74 33 82 52 82 L50 82 C45 79 43 72 43 64 Z" fill="#C2410C"/><path d="M43 64.6 L81.3 64.6 C80 76 72 82 62 82 L50 82 C45 79 43 72 43 64.6 Z" fill="#FDBA74"/></g><g transform="rotate(180 80.0 80.0) translate(23.16 75.52) scale(0.6303)"><path d="M43 16 C30 18 23.6 28 23.6 37 L23.6 62 C23.6 74 33 82 52 82 L50 82 C45 79 43 72 43 64 Z" fill="#C2410C"/><path d="M43 64.6 L81.3 64.6 C80 76 72 82 62 82 L50 82 C45 79 43 72 43 64.6 Z" fill="#FDBA74"/></g><g transform="rotate(270 80.0 80.0) translate(23.16 75.52) scale(0.6303)"><path d="M43 16 C30 18 23.6 28 23.6 37 L23.6 62 C23.6 74 33 82 52 82 L50 82 C45 79 43 72 43 64 Z" fill="#C2410C"/><path d="M43 64.6 L81.3 64.6 C80 76 72 82 62 82 L50 82 C45 79 43 72 43 64.6 Z" fill="#FDBA74"/></g></g></g><g transform="translate(640 160)"><g opacity="0.32"><g transform="rotate(0 80.0 80.0) translate(23.16 75.52) scale(0.6303)"><path d="M43 16 C30 18 23.6 28 23.6 37 L23.6 62 C23.6 74 33 82 52 82 L50 82 C45 79 43 72 43 64 Z" fill="#C2410C"/><path d="M43 64.6 L81.3 64.6 C80 76 72 82 62 82 L50 82 C45 79 43 72 43 64.6 Z" fill="#FDBA74"/></g><g transform="rotate(90 80.0 80.0) translate(23.16 75.52) scale(0.6303)"><path d="M43 16 C30 18 23.6 28 23.6 37 L23.6 62 C23.6 74 33 82 52 82 L50 82 C45 79 43 72 43 64 Z" fill="#C2410C"/><path d="M43 64.6 L81.3 64.6 C80 76 72 82 62 82 L50 82 C45 79 43 72 43 64.6 Z" fill="#FDBA74"/></g><g transform="rotate(180 80.0 80.0) translate(23.16 75.52) scale(0.6303)"><path d="M43 16 C30 18 23.6 28 23.6 37 L23.6 62 C23.6 74 33 82 52 82 L50 82 C45 79 43 72 43 64 Z" fill="#C2410C"/><path d="M43 64.6 L81.3 64.6 C80 76 72 82 62 82 L50 82 C45 79 43 72 43 64.6 Z" fill="#FDBA74"/></g><g transform="rotate(270 80.0 80.0) translate(23.16 75.52) scale(0.6303)"><path d="M43 16 C30 18 23.6 28 23.6 37 L23.6 62 C23.6 74 33 82 52 82 L50 82 C45 79 43 72 43 64 Z" fill="#C2410C"/><path d="M43 64.6 L81.3 64.6 C80 76 72 82 62 82 L50 82 C45 79 43 72 43 64.6 Z" fill="#FDBA74"/></g></g></g><g transform="translate(640 320)"><g opacity="0.32"><g transform="rotate(0 80.0 80.0) translate(23.16 75.52) scale(0.6303)"><path d="M43 16 C30 18 23.6 28 23.6 37 L23.6 62 C23.6 74 33 82 52 82 L50 82 C45 79 43 72 43 64 Z" fill="#C2410C"/><path d="M43 64.6 L81.3 64.6 C80 76 72 82 62 82 L50 82 C45 79 43 72 43 64.6 Z" fill="#FDBA74"/></g><g transform="rotate(90 80.0 80.0) translate(23.16 75.52) scale(0.6303)"><path d="M43 16 C30 18 23.6 28 23.6 37 L23.6 62 C23.6 74 33 82 52 82 L50 82 C45 79 43 72 43 64 Z" fill="#C2410C"/><path d="M43 64.6 L81.3 64.6 C80 76 72 82 62 82 L50 82 C45 79 43 72 43 64.6 Z" fill="#FDBA74"/></g><g transform="rotate(180 80.0 80.0) translate(23.16 75.52) scale(0.6303)"><path d="M43 16 C30 18 23.6 28 23.6 37 L23.6 62 C23.6 74 33 82 52 82 L50 82 C45 79 43 72 43 64 Z" fill="#C2410C"/><path d="M43 64.6 L81.3 64.6 C80 76 72 82 62 82 L50 82 C45 79 43 72 43 64.6 Z" fill="#FDBA74"/></g><g transform="rotate(270 80.0 80.0) translate(23.16 75.52) scale(0.6303)"><path d="M43 16 C30 18 23.6 28 23.6 37 L23.6 62 C23.6 74 33 82 52 82 L50 82 C45 79 43 72 43 64 Z" fill="#C2410C"/><path d="M43 64.6 L81.3 64.6 C80 76 72 82 62 82 L50 82 C45 79 43 72 43 64.6 Z" fill="#FDBA74"/></g></g></g><g transform="translate(640 480)"><g opacity="0.32"><g transform="rotate(0 80.0 80.0) translate(23.16 75.52) scale(0.6303)"><path d="M43 16 C30 18 23.6 28 23.6 37 L23.6 62 C23.6 74 33 82 52 82 L50 82 C45 79 43 72 43 64 Z" fill="#C2410C"/><path d="M43 64.6 L81.3 64.6 C80 76 72 82 62 82 L50 82 C45 79 43 72 43 64.6 Z" fill="#FDBA74"/></g><g transform="rotate(90 80.0 80.0) translate(23.16 75.52) scale(0.6303)"><path d="M43 16 C30 18 23.6 28 23.6 37 L23.6 62 C23.6 74 33 82 52 82 L50 82 C45 79 43 72 43 64 Z" fill="#C2410C"/><path d="M43 64.6 L81.3 64.6 C80 76 72 82 62 82 L50 82 C45 79 43 72 43 64.6 Z" fill="#FDBA74"/></g><g transform="rotate(180 80.0 80.0) translate(23.16 75.52) scale(0.6303)"><path d="M43 16 C30 18 23.6 28 23.6 37 L23.6 62 C23.6 74 33 82 52 82 L50 82 C45 79 43 72 43 64 Z" fill="#C2410C"/><path d="M43 64.6 L81.3 64.6 C80 76 72 82 62 82 L50 82 C45 79 43 72 43 64.6 Z" fill="#FDBA74"/></g><g transform="rotate(270 80.0 80.0) translate(23.16 75.52) scale(0.6303)"><path d="M43 16 C30 18 23.6 28 23.6 37 L23.6 62 C23.6 74 33 82 52 82 L50 82 C45 79 43 72 43 64 Z" fill="#C2410C"/><path d="M43 64.6 L81.3 64.6 C80 76 72 82 62 82 L50 82 C45 79 43 72 43 64.6 Z" fill="#FDBA74"/></g></g></g><g transform="translate(640 640)"><g opacity="0.32"><g transform="rotate(0 80.0 80.0) translate(23.16 75.52) scale(0.6303)"><path d="M43 16 C30 18 23.6 28 23.6 37 L23.6 62 C23.6 74 33 82 52 82 L50 82 C45 79 43 72 43 64 Z" fill="#C2410C"/><path d="M43 64.6 L81.3 64.6 C80 76 72 82 62 82 L50 82 C45 79 43 72 43 64.6 Z" fill="#FDBA74"/></g><g transform="rotate(90 80.0 80.0) translate(23.16 75.52) scale(0.6303)"><path d="M43 16 C30 18 23.6 28 23.6 37 L23.6 62 C23.6 74 33 82 52 82 L50 82 C45 79 43 72 43 64 Z" fill="#C2410C"/><path d="M43 64.6 L81.3 64.6 C80 76 72 82 62 82 L50 82 C45 79 43 72 43 64.6 Z" fill="#FDBA74"/></g><g transform="rotate(180 80.0 80.0) translate(23.16 75.52) scale(0.6303)"><path d="M43 16 C30 18 23.6 28 23.6 37 L23.6 62 C23.6 74 33 82 52 82 L50 82 C45 79 43 72 43 64 Z" fill="#C2410C"/><path d="M43 64.6 L81.3 64.6 C80 76 72 82 62 82 L50 82 C45 79 43 72 43 64.6 Z" fill="#FDBA74"/></g><g transform="rotate(270 80.0 80.0) translate(23.16 75.52) scale(0.6303)"><path d="M43 16 C30 18 23.6 28 23.6 37 L23.6 62 C23.6 74 33 82 52 82 L50 82 C45 79 43 72 43 64 Z" fill="#C2410C"/><path d="M43 64.6 L81.3 64.6 C80 76 72 82 62 82 L50 82 C45 79 43 72 43 64.6 Z" fill="#FDBA74"/></g></g></g><g transform="translate(640 800)"><g opacity="0.32"><g transform="rotate(0 80.0 80.0) translate(23.16 75.52) scale(0.6303)"><path d="M43 16 C30 18 23.6 28 23.6 37 L23.6 62 C23.6 74 33 82 52 82 L50 82 C45 79 43 72 43 64 Z" fill="#C2410C"/><path d="M43 64.6 L81.3 64.6 C80 76 72 82 62 82 L50 82 C45 79 43 72 43 64.6 Z" fill="#FDBA74"/></g><g transform="rotate(90 80.0 80.0) translate(23.16 75.52) scale(0.6303)"><path d="M43 16 C30 18 23.6 28 23.6 37 L23.6 62 C23.6 74 33 82 52 82 L50 82 C45 79 43 72 43 64 Z" fill="#C2410C"/><path d="M43 64.6 L81.3 64.6 C80 76 72 82 62 82 L50 82 C45 79 43 72 43 64.6 Z" fill="#FDBA74"/></g><g transform="rotate(180 80.0 80.0) translate(23.16 75.52) scale(0.6303)"><path d="M43 16 C30 18 23.6 28 23.6 37 L23.6 62 C23.6 74 33 82 52 82 L50 82 C45 79 43 72 43 64 Z" fill="#C2410C"/><path d="M43 64.6 L81.3 64.6 C80 76 72 82 62 82 L50 82 C45 79 43 72 43 64.6 Z" fill="#FDBA74"/></g><g transform="rotate(270 80.0 80.0) translate(23.16 75.52) scale(0.6303)"><path d="M43 16 C30 18 23.6 28 23.6 37 L23.6 62 C23.6 74 33 82 52 82 L50 82 C45 79 43 72 43 64 Z" fill="#C2410C"/><path d="M43 64.6 L81.3 64.6 C80 76 72 82 62 82 L50 82 C45 79 43 72 43 64.6 Z" fill="#FDBA74"/></g></g></g><g transform="translate(800 0)"><g opacity="0.32"><g transform="rotate(0 80.0 80.0) translate(23.16 75.52) scale(0.6303)"><path d="M43 16 C30 18 23.6 28 23.6 37 L23.6 62 C23.6 74 33 82 52 82 L50 82 C45 79 43 72 43 64 Z" fill="#C2410C"/><path d="M43 64.6 L81.3 64.6 C80 76 72 82 62 82 L50 82 C45 79 43 72 43 64.6 Z" fill="#FDBA74"/></g><g transform="rotate(90 80.0 80.0) translate(23.16 75.52) scale(0.6303)"><path d="M43 16 C30 18 23.6 28 23.6 37 L23.6 62 C23.6 74 33 82 52 82 L50 82 C45 79 43 72 43 64 Z" fill="#C2410C"/><path d="M43 64.6 L81.3 64.6 C80 76 72 82 62 82 L50 82 C45 79 43 72 43 64.6 Z" fill="#FDBA74"/></g><g transform="rotate(180 80.0 80.0) translate(23.16 75.52) scale(0.6303)"><path d="M43 16 C30 18 23.6 28 23.6 37 L23.6 62 C23.6 74 33 82 52 82 L50 82 C45 79 43 72 43 64 Z" fill="#C2410C"/><path d="M43 64.6 L81.3 64.6 C80 76 72 82 62 82 L50 82 C45 79 43 72 43 64.6 Z" fill="#FDBA74"/></g><g transform="rotate(270 80.0 80.0) translate(23.16 75.52) scale(0.6303)"><path d="M43 16 C30 18 23.6 28 23.6 37 L23.6 62 C23.6 74 33 82 52 82 L50 82 C45 79 43 72 43 64 Z" fill="#C2410C"/><path d="M43 64.6 L81.3 64.6 C80 76 72 82 62 82 L50 82 C45 79 43 72 43 64.6 Z" fill="#FDBA74"/></g></g></g><g transform="translate(800 160)"><g opacity="0.32"><g transform="rotate(0 80.0 80.0) translate(23.16 75.52) scale(0.6303)"><path d="M43 16 C30 18 23.6 28 23.6 37 L23.6 62 C23.6 74 33 82 52 82 L50 82 C45 79 43 72 43 64 Z" fill="#C2410C"/><path d="M43 64.6 L81.3 64.6 C80 76 72 82 62 82 L50 82 C45 79 43 72 43 64.6 Z" fill="#FDBA74"/></g><g transform="rotate(90 80.0 80.0) translate(23.16 75.52) scale(0.6303)"><path d="M43 16 C30 18 23.6 28 23.6 37 L23.6 62 C23.6 74 33 82 52 82 L50 82 C45 79 43 72 43 64 Z" fill="#C2410C"/><path d="M43 64.6 L81.3 64.6 C80 76 72 82 62 82 L50 82 C45 79 43 72 43 64.6 Z" fill="#FDBA74"/></g><g transform="rotate(180 80.0 80.0) translate(23.16 75.52) scale(0.6303)"><path d="M43 16 C30 18 23.6 28 23.6 37 L23.6 62 C23.6 74 33 82 52 82 L50 82 C45 79 43 72 43 64 Z" fill="#C2410C"/><path d="M43 64.6 L81.3 64.6 C80 76 72 82 62 82 L50 82 C45 79 43 72 43 64.6 Z" fill="#FDBA74"/></g><g transform="rotate(270 80.0 80.0) translate(23.16 75.52) scale(0.6303)"><path d="M43 16 C30 18 23.6 28 23.6 37 L23.6 62 C23.6 74 33 82 52 82 L50 82 C45 79 43 72 43 64 Z" fill="#C2410C"/><path d="M43 64.6 L81.3 64.6 C80 76 72 82 62 82 L50 82 C45 79 43 72 43 64.6 Z" fill="#FDBA74"/></g></g></g><g transform="translate(800 320)"><g opacity="0.32"><g transform="rotate(0 80.0 80.0) translate(23.16 75.52) scale(0.6303)"><path d="M43 16 C30 18 23.6 28 23.6 37 L23.6 62 C23.6 74 33 82 52 82 L50 82 C45 79 43 72 43 64 Z" fill="#C2410C"/><path d="M43 64.6 L81.3 64.6 C80 76 72 82 62 82 L50 82 C45 79 43 72 43 64.6 Z" fill="#FDBA74"/></g><g transform="rotate(90 80.0 80.0) translate(23.16 75.52) scale(0.6303)"><path d="M43 16 C30 18 23.6 28 23.6 37 L23.6 62 C23.6 74 33 82 52 82 L50 82 C45 79 43 72 43 64 Z" fill="#C2410C"/><path d="M43 64.6 L81.3 64.6 C80 76 72 82 62 82 L50 82 C45 79 43 72 43 64.6 Z" fill="#FDBA74"/></g><g transform="rotate(180 80.0 80.0) translate(23.16 75.52) scale(0.6303)"><path d="M43 16 C30 18 23.6 28 23.6 37 L23.6 62 C23.6 74 33 82 52 82 L50 82 C45 79 43 72 43 64 Z" fill="#C2410C"/><path d="M43 64.6 L81.3 64.6 C80 76 72 82 62 82 L50 82 C45 79 43 72 43 64.6 Z" fill="#FDBA74"/></g><g transform="rotate(270 80.0 80.0) translate(23.16 75.52) scale(0.6303)"><path d="M43 16 C30 18 23.6 28 23.6 37 L23.6 62 C23.6 74 33 82 52 82 L50 82 C45 79 43 72 43 64 Z" fill="#C2410C"/><path d="M43 64.6 L81.3 64.6 C80 76 72 82 62 82 L50 82 C45 79 43 72 43 64.6 Z" fill="#FDBA74"/></g></g></g><g transform="translate(800 480)"><g opacity="0.32"><g transform="rotate(0 80.0 80.0) translate(23.16 75.52) scale(0.6303)"><path d="M43 16 C30 18 23.6 28 23.6 37 L23.6 62 C23.6 74 33 82 52 82 L50 82 C45 79 43 72 43 64 Z" fill="#C2410C"/><path d="M43 64.6 L81.3 64.6 C80 76 72 82 62 82 L50 82 C45 79 43 72 43 64.6 Z" fill="#FDBA74"/></g><g transform="rotate(90 80.0 80.0) translate(23.16 75.52) scale(0.6303)"><path d="M43 16 C30 18 23.6 28 23.6 37 L23.6 62 C23.6 74 33 82 52 82 L50 82 C45 79 43 72 43 64 Z" fill="#C2410C"/><path d="M43 64.6 L81.3 64.6 C80 76 72 82 62 82 L50 82 C45 79 43 72 43 64.6 Z" fill="#FDBA74"/></g><g transform="rotate(180 80.0 80.0) translate(23.16 75.52) scale(0.6303)"><path d="M43 16 C30 18 23.6 28 23.6 37 L23.6 62 C23.6 74 33 82 52 82 L50 82 C45 79 43 72 43 64 Z" fill="#C2410C"/><path d="M43 64.6 L81.3 64.6 C80 76 72 82 62 82 L50 82 C45 79 43 72 43 64.6 Z" fill="#FDBA74"/></g><g transform="rotate(270 80.0 80.0) translate(23.16 75.52) scale(0.6303)"><path d="M43 16 C30 18 23.6 28 23.6 37 L23.6 62 C23.6 74 33 82 52 82 L50 82 C45 79 43 72 43 64 Z" fill="#C2410C"/><path d="M43 64.6 L81.3 64.6 C80 76 72 82 62 82 L50 82 C45 79 43 72 43 64.6 Z" fill="#FDBA74"/></g></g></g><g transform="translate(800 640)"><g opacity="0.32"><g transform="rotate(0 80.0 80.0) translate(23.16 75.52) scale(0.6303)"><path d="M43 16 C30 18 23.6 28 23.6 37 L23.6 62 C23.6 74 33 82 52 82 L50 82 C45 79 43 72 43 64 Z" fill="#C2410C"/><path d="M43 64.6 L81.3 64.6 C80 76 72 82 62 82 L50 82 C45 79 43 72 43 64.6 Z" fill="#FDBA74"/></g><g transform="rotate(90 80.0 80.0) translate(23.16 75.52) scale(0.6303)"><path d="M43 16 C30 18 23.6 28 23.6 37 L23.6 62 C23.6 74 33 82 52 82 L50 82 C45 79 43 72 43 64 Z" fill="#C2410C"/><path d="M43 64.6 L81.3 64.6 C80 76 72 82 62 82 L50 82 C45 79 43 72 43 64.6 Z" fill="#FDBA74"/></g><g transform="rotate(180 80.0 80.0) translate(23.16 75.52) scale(0.6303)"><path d="M43 16 C30 18 23.6 28 23.6 37 L23.6 62 C23.6 74 33 82 52 82 L50 82 C45 79 43 72 43 64 Z" fill="#C2410C"/><path d="M43 64.6 L81.3 64.6 C80 76 72 82 62 82 L50 82 C45 79 43 72 43 64.6 Z" fill="#FDBA74"/></g><g transform="rotate(270 80.0 80.0) translate(23.16 75.52) scale(0.6303)"><path d="M43 16 C30 18 23.6 28 23.6 37 L23.6 62 C23.6 74 33 82 52 82 L50 82 C45 79 43 72 43 64 Z" fill="#C2410C"/><path d="M43 64.6 L81.3 64.6 C80 76 72 82 62 82 L50 82 C45 79 43 72 43 64.6 Z" fill="#FDBA74"/></g></g></g><g transform="translate(800 800)"><g opacity="0.32"><g transform="rotate(0 80.0 80.0) translate(23.16 75.52) scale(0.6303)"><path d="M43 16 C30 18 23.6 28 23.6 37 L23.6 62 C23.6 74 33 82 52 82 L50 82 C45 79 43 72 43 64 Z" fill="#C2410C"/><path d="M43 64.6 L81.3 64.6 C80 76 72 82 62 82 L50 82 C45 79 43 72 43 64.6 Z" fill="#FDBA74"/></g><g transform="rotate(90 80.0 80.0) translate(23.16 75.52) scale(0.6303)"><path d="M43 16 C30 18 23.6 28 23.6 37 L23.6 62 C23.6 74 33 82 52 82 L50 82 C45 79 43 72 43 64 Z" fill="#C2410C"/><path d="M43 64.6 L81.3 64.6 C80 76 72 82 62 82 L50 82 C45 79 43 72 43 64.6 Z" fill="#FDBA74"/></g><g transform="rotate(180 80.0 80.0) translate(23.16 75.52) scale(0.6303)"><path d="M43 16 C30 18 23.6 28 23.6 37 L23.6 62 C23.6 74 33 82 52 82 L50 82 C45 79 43 72 43 64 Z" fill="#C2410C"/><path d="M43 64.6 L81.3 64.6 C80 76 72 82 62 82 L50 82 C45 79 43 72 43 64.6 Z" fill="#FDBA74"/></g><g transform="rotate(270 80.0 80.0) translate(23.16 75.52) scale(0.6303)"><path d="M43 16 C30 18 23.6 28 23.6 37 L23.6 62 C23.6 74 33 82 52 82 L50 82 C45 79 43 72 43 64 Z" fill="#C2410C"/><path d="M43 64.6 L81.3 64.6 C80 76 72 82 62 82 L50 82 C45 79 43 72 43 64.6 Z" fill="#FDBA74"/></g></g></g><g transform="translate(960 0)"><g opacity="0.32"><g transform="rotate(0 80.0 80.0) translate(23.16 75.52) scale(0.6303)"><path d="M43 16 C30 18 23.6 28 23.6 37 L23.6 62 C23.6 74 33 82 52 82 L50 82 C45 79 43 72 43 64 Z" fill="#C2410C"/><path d="M43 64.6 L81.3 64.6 C80 76 72 82 62 82 L50 82 C45 79 43 72 43 64.6 Z" fill="#FDBA74"/></g><g transform="rotate(90 80.0 80.0) translate(23.16 75.52) scale(0.6303)"><path d="M43 16 C30 18 23.6 28 23.6 37 L23.6 62 C23.6 74 33 82 52 82 L50 82 C45 79 43 72 43 64 Z" fill="#C2410C"/><path d="M43 64.6 L81.3 64.6 C80 76 72 82 62 82 L50 82 C45 79 43 72 43 64.6 Z" fill="#FDBA74"/></g><g transform="rotate(180 80.0 80.0) translate(23.16 75.52) scale(0.6303)"><path d="M43 16 C30 18 23.6 28 23.6 37 L23.6 62 C23.6 74 33 82 52 82 L50 82 C45 79 43 72 43 64 Z" fill="#C2410C"/><path d="M43 64.6 L81.3 64.6 C80 76 72 82 62 82 L50 82 C45 79 43 72 43 64.6 Z" fill="#FDBA74"/></g><g transform="rotate(270 80.0 80.0) translate(23.16 75.52) scale(0.6303)"><path d="M43 16 C30 18 23.6 28 23.6 37 L23.6 62 C23.6 74 33 82 52 82 L50 82 C45 79 43 72 43 64 Z" fill="#C2410C"/><path d="M43 64.6 L81.3 64.6 C80 76 72 82 62 82 L50 82 C45 79 43 72 43 64.6 Z" fill="#FDBA74"/></g></g></g><g transform="translate(960 160)"><g opacity="0.32"><g transform="rotate(0 80.0 80.0) translate(23.16 75.52) scale(0.6303)"><path d="M43 16 C30 18 23.6 28 23.6 37 L23.6 62 C23.6 74 33 82 52 82 L50 82 C45 79 43 72 43 64 Z" fill="#C2410C"/><path d="M43 64.6 L81.3 64.6 C80 76 72 82 62 82 L50 82 C45 79 43 72 43 64.6 Z" fill="#FDBA74"/></g><g transform="rotate(90 80.0 80.0) translate(23.16 75.52) scale(0.6303)"><path d="M43 16 C30 18 23.6 28 23.6 37 L23.6 62 C23.6 74 33 82 52 82 L50 82 C45 79 43 72 43 64 Z" fill="#C2410C"/><path d="M43 64.6 L81.3 64.6 C80 76 72 82 62 82 L50 82 C45 79 43 72 43 64.6 Z" fill="#FDBA74"/></g><g transform="rotate(180 80.0 80.0) translate(23.16 75.52) scale(0.6303)"><path d="M43 16 C30 18 23.6 28 23.6 37 L23.6 62 C23.6 74 33 82 52 82 L50 82 C45 79 43 72 43 64 Z" fill="#C2410C"/><path d="M43 64.6 L81.3 64.6 C80 76 72 82 62 82 L50 82 C45 79 43 72 43 64.6 Z" fill="#FDBA74"/></g><g transform="rotate(270 80.0 80.0) translate(23.16 75.52) scale(0.6303)"><path d="M43 16 C30 18 23.6 28 23.6 37 L23.6 62 C23.6 74 33 82 52 82 L50 82 C45 79 43 72 43 64 Z" fill="#C2410C"/><path d="M43 64.6 L81.3 64.6 C80 76 72 82 62 82 L50 82 C45 79 43 72 43 64.6 Z" fill="#FDBA74"/></g></g></g><g transform="translate(960 320)"><g opacity="0.32"><g transform="rotate(0 80.0 80.0) translate(23.16 75.52) scale(0.6303)"><path d="M43 16 C30 18 23.6 28 23.6 37 L23.6 62 C23.6 74 33 82 52 82 L50 82 C45 79 43 72 43 64 Z" fill="#C2410C"/><path d="M43 64.6 L81.3 64.6 C80 76 72 82 62 82 L50 82 C45 79 43 72 43 64.6 Z" fill="#FDBA74"/></g><g transform="rotate(90 80.0 80.0) translate(23.16 75.52) scale(0.6303)"><path d="M43 16 C30 18 23.6 28 23.6 37 L23.6 62 C23.6 74 33 82 52 82 L50 82 C45 79 43 72 43 64 Z" fill="#C2410C"/><path d="M43 64.6 L81.3 64.6 C80 76 72 82 62 82 L50 82 C45 79 43 72 43 64.6 Z" fill="#FDBA74"/></g><g transform="rotate(180 80.0 80.0) translate(23.16 75.52) scale(0.6303)"><path d="M43 16 C30 18 23.6 28 23.6 37 L23.6 62 C23.6 74 33 82 52 82 L50 82 C45 79 43 72 43 64 Z" fill="#C2410C"/><path d="M43 64.6 L81.3 64.6 C80 76 72 82 62 82 L50 82 C45 79 43 72 43 64.6 Z" fill="#FDBA74"/></g><g transform="rotate(270 80.0 80.0) translate(23.16 75.52) scale(0.6303)"><path d="M43 16 C30 18 23.6 28 23.6 37 L23.6 62 C23.6 74 33 82 52 82 L50 82 C45 79 43 72 43 64 Z" fill="#C2410C"/><path d="M43 64.6 L81.3 64.6 C80 76 72 82 62 82 L50 82 C45 79 43 72 43 64.6 Z" fill="#FDBA74"/></g></g></g><g transform="translate(960 480)"><g opacity="0.32"><g transform="rotate(0 80.0 80.0) translate(23.16 75.52) scale(0.6303)"><path d="M43 16 C30 18 23.6 28 23.6 37 L23.6 62 C23.6 74 33 82 52 82 L50 82 C45 79 43 72 43 64 Z" fill="#C2410C"/><path d="M43 64.6 L81.3 64.6 C80 76 72 82 62 82 L50 82 C45 79 43 72 43 64.6 Z" fill="#FDBA74"/></g><g transform="rotate(90 80.0 80.0) translate(23.16 75.52) scale(0.6303)"><path d="M43 16 C30 18 23.6 28 23.6 37 L23.6 62 C23.6 74 33 82 52 82 L50 82 C45 79 43 72 43 64 Z" fill="#C2410C"/><path d="M43 64.6 L81.3 64.6 C80 76 72 82 62 82 L50 82 C45 79 43 72 43 64.6 Z" fill="#FDBA74"/></g><g transform="rotate(180 80.0 80.0) translate(23.16 75.52) scale(0.6303)"><path d="M43 16 C30 18 23.6 28 23.6 37 L23.6 62 C23.6 74 33 82 52 82 L50 82 C45 79 43 72 43 64 Z" fill="#C2410C"/><path d="M43 64.6 L81.3 64.6 C80 76 72 82 62 82 L50 82 C45 79 43 72 43 64.6 Z" fill="#FDBA74"/></g><g transform="rotate(270 80.0 80.0) translate(23.16 75.52) scale(0.6303)"><path d="M43 16 C30 18 23.6 28 23.6 37 L23.6 62 C23.6 74 33 82 52 82 L50 82 C45 79 43 72 43 64 Z" fill="#C2410C"/><path d="M43 64.6 L81.3 64.6 C80 76 72 82 62 82 L50 82 C45 79 43 72 43 64.6 Z" fill="#FDBA74"/></g></g></g><g transform="translate(960 640)"><g opacity="0.32"><g transform="rotate(0 80.0 80.0) translate(23.16 75.52) scale(0.6303)"><path d="M43 16 C30 18 23.6 28 23.6 37 L23.6 62 C23.6 74 33 82 52 82 L50 82 C45 79 43 72 43 64 Z" fill="#C2410C"/><path d="M43 64.6 L81.3 64.6 C80 76 72 82 62 82 L50 82 C45 79 43 72 43 64.6 Z" fill="#FDBA74"/></g><g transform="rotate(90 80.0 80.0) translate(23.16 75.52) scale(0.6303)"><path d="M43 16 C30 18 23.6 28 23.6 37 L23.6 62 C23.6 74 33 82 52 82 L50 82 C45 79 43 72 43 64 Z" fill="#C2410C"/><path d="M43 64.6 L81.3 64.6 C80 76 72 82 62 82 L50 82 C45 79 43 72 43 64.6 Z" fill="#FDBA74"/></g><g transform="rotate(180 80.0 80.0) translate(23.16 75.52) scale(0.6303)"><path d="M43 16 C30 18 23.6 28 23.6 37 L23.6 62 C23.6 74 33 82 52 82 L50 82 C45 79 43 72 43 64 Z" fill="#C2410C"/><path d="M43 64.6 L81.3 64.6 C80 76 72 82 62 82 L50 82 C45 79 43 72 43 64.6 Z" fill="#FDBA74"/></g><g transform="rotate(270 80.0 80.0) translate(23.16 75.52) scale(0.6303)"><path d="M43 16 C30 18 23.6 28 23.6 37 L23.6 62 C23.6 74 33 82 52 82 L50 82 C45 79 43 72 43 64 Z" fill="#C2410C"/><path d="M43 64.6 L81.3 64.6 C80 76 72 82 62 82 L50 82 C45 79 43 72 43 64.6 Z" fill="#FDBA74"/></g></g></g><g transform="translate(960 800)"><g opacity="0.32"><g transform="rotate(0 80.0 80.0) translate(23.16 75.52) scale(0.6303)"><path d="M43 16 C30 18 23.6 28 23.6 37 L23.6 62 C23.6 74 33 82 52 82 L50 82 C45 79 43 72 43 64 Z" fill="#C2410C"/><path d="M43 64.6 L81.3 64.6 C80 76 72 82 62 82 L50 82 C45 79 43 72 43 64.6 Z" fill="#FDBA74"/></g><g transform="rotate(90 80.0 80.0) translate(23.16 75.52) scale(0.6303)"><path d="M43 16 C30 18 23.6 28 23.6 37 L23.6 62 C23.6 74 33 82 52 82 L50 82 C45 79 43 72 43 64 Z" fill="#C2410C"/><path d="M43 64.6 L81.3 64.6 C80 76 72 82 62 82 L50 82 C45 79 43 72 43 64.6 Z" fill="#FDBA74"/></g><g transform="rotate(180 80.0 80.0) translate(23.16 75.52) scale(0.6303)"><path d="M43 16 C30 18 23.6 28 23.6 37 L23.6 62 C23.6 74 33 82 52 82 L50 82 C45 79 43 72 43 64 Z" fill="#C2410C"/><path d="M43 64.6 L81.3 64.6 C80 76 72 82 62 82 L50 82 C45 79 43 72 43 64.6 Z" fill="#FDBA74"/></g><g transform="rotate(270 80.0 80.0) translate(23.16 75.52) scale(0.6303)"><path d="M43 16 C30 18 23.6 28 23.6 37 L23.6 62 C23.6 74 33 82 52 82 L50 82 C45 79 43 72 43 64 Z" fill="#C2410C"/><path d="M43 64.6 L81.3 64.6 C80 76 72 82 62 82 L50 82 C45 79 43 72 43 64.6 Z" fill="#FDBA74"/></g></g></g><g transform="translate(1120 0)"><g opacity="0.32"><g transform="rotate(0 80.0 80.0) translate(23.16 75.52) scale(0.6303)"><path d="M43 16 C30 18 23.6 28 23.6 37 L23.6 62 C23.6 74 33 82 52 82 L50 82 C45 79 43 72 43 64 Z" fill="#C2410C"/><path d="M43 64.6 L81.3 64.6 C80 76 72 82 62 82 L50 82 C45 79 43 72 43 64.6 Z" fill="#FDBA74"/></g><g transform="rotate(90 80.0 80.0) translate(23.16 75.52) scale(0.6303)"><path d="M43 16 C30 18 23.6 28 23.6 37 L23.6 62 C23.6 74 33 82 52 82 L50 82 C45 79 43 72 43 64 Z" fill="#C2410C"/><path d="M43 64.6 L81.3 64.6 C80 76 72 82 62 82 L50 82 C45 79 43 72 43 64.6 Z" fill="#FDBA74"/></g><g transform="rotate(180 80.0 80.0) translate(23.16 75.52) scale(0.6303)"><path d="M43 16 C30 18 23.6 28 23.6 37 L23.6 62 C23.6 74 33 82 52 82 L50 82 C45 79 43 72 43 64 Z" fill="#C2410C"/><path d="M43 64.6 L81.3 64.6 C80 76 72 82 62 82 L50 82 C45 79 43 72 43 64.6 Z" fill="#FDBA74"/></g><g transform="rotate(270 80.0 80.0) translate(23.16 75.52) scale(0.6303)"><path d="M43 16 C30 18 23.6 28 23.6 37 L23.6 62 C23.6 74 33 82 52 82 L50 82 C45 79 43 72 43 64 Z" fill="#C2410C"/><path d="M43 64.6 L81.3 64.6 C80 76 72 82 62 82 L50 82 C45 79 43 72 43 64.6 Z" fill="#FDBA74"/></g></g></g><g transform="translate(1120 160)"><g opacity="0.32"><g transform="rotate(0 80.0 80.0) translate(23.16 75.52) scale(0.6303)"><path d="M43 16 C30 18 23.6 28 23.6 37 L23.6 62 C23.6 74 33 82 52 82 L50 82 C45 79 43 72 43 64 Z" fill="#C2410C"/><path d="M43 64.6 L81.3 64.6 C80 76 72 82 62 82 L50 82 C45 79 43 72 43 64.6 Z" fill="#FDBA74"/></g><g transform="rotate(90 80.0 80.0) translate(23.16 75.52) scale(0.6303)"><path d="M43 16 C30 18 23.6 28 23.6 37 L23.6 62 C23.6 74 33 82 52 82 L50 82 C45 79 43 72 43 64 Z" fill="#C2410C"/><path d="M43 64.6 L81.3 64.6 C80 76 72 82 62 82 L50 82 C45 79 43 72 43 64.6 Z" fill="#FDBA74"/></g><g transform="rotate(180 80.0 80.0) translate(23.16 75.52) scale(0.6303)"><path d="M43 16 C30 18 23.6 28 23.6 37 L23.6 62 C23.6 74 33 82 52 82 L50 82 C45 79 43 72 43 64 Z" fill="#C2410C"/><path d="M43 64.6 L81.3 64.6 C80 76 72 82 62 82 L50 82 C45 79 43 72 43 64.6 Z" fill="#FDBA74"/></g><g transform="rotate(270 80.0 80.0) translate(23.16 75.52) scale(0.6303)"><path d="M43 16 C30 18 23.6 28 23.6 37 L23.6 62 C23.6 74 33 82 52 82 L50 82 C45 79 43 72 43 64 Z" fill="#C2410C"/><path d="M43 64.6 L81.3 64.6 C80 76 72 82 62 82 L50 82 C45 79 43 72 43 64.6 Z" fill="#FDBA74"/></g></g></g><g transform="translate(1120 320)"><g opacity="0.32"><g transform="rotate(0 80.0 80.0) translate(23.16 75.52) scale(0.6303)"><path d="M43 16 C30 18 23.6 28 23.6 37 L23.6 62 C23.6 74 33 82 52 82 L50 82 C45 79 43 72 43 64 Z" fill="#C2410C"/><path d="M43 64.6 L81.3 64.6 C80 76 72 82 62 82 L50 82 C45 79 43 72 43 64.6 Z" fill="#FDBA74"/></g><g transform="rotate(90 80.0 80.0) translate(23.16 75.52) scale(0.6303)"><path d="M43 16 C30 18 23.6 28 23.6 37 L23.6 62 C23.6 74 33 82 52 82 L50 82 C45 79 43 72 43 64 Z" fill="#C2410C"/><path d="M43 64.6 L81.3 64.6 C80 76 72 82 62 82 L50 82 C45 79 43 72 43 64.6 Z" fill="#FDBA74"/></g><g transform="rotate(180 80.0 80.0) translate(23.16 75.52) scale(0.6303)"><path d="M43 16 C30 18 23.6 28 23.6 37 L23.6 62 C23.6 74 33 82 52 82 L50 82 C45 79 43 72 43 64 Z" fill="#C2410C"/><path d="M43 64.6 L81.3 64.6 C80 76 72 82 62 82 L50 82 C45 79 43 72 43 64.6 Z" fill="#FDBA74"/></g><g transform="rotate(270 80.0 80.0) translate(23.16 75.52) scale(0.6303)"><path d="M43 16 C30 18 23.6 28 23.6 37 L23.6 62 C23.6 74 33 82 52 82 L50 82 C45 79 43 72 43 64 Z" fill="#C2410C"/><path d="M43 64.6 L81.3 64.6 C80 76 72 82 62 82 L50 82 C45 79 43 72 43 64.6 Z" fill="#FDBA74"/></g></g></g><g transform="translate(1120 480)"><g opacity="0.32"><g transform="rotate(0 80.0 80.0) translate(23.16 75.52) scale(0.6303)"><path d="M43 16 C30 18 23.6 28 23.6 37 L23.6 62 C23.6 74 33 82 52 82 L50 82 C45 79 43 72 43 64 Z" fill="#C2410C"/><path d="M43 64.6 L81.3 64.6 C80 76 72 82 62 82 L50 82 C45 79 43 72 43 64.6 Z" fill="#FDBA74"/></g><g transform="rotate(90 80.0 80.0) translate(23.16 75.52) scale(0.6303)"><path d="M43 16 C30 18 23.6 28 23.6 37 L23.6 62 C23.6 74 33 82 52 82 L50 82 C45 79 43 72 43 64 Z" fill="#C2410C"/><path d="M43 64.6 L81.3 64.6 C80 76 72 82 62 82 L50 82 C45 79 43 72 43 64.6 Z" fill="#FDBA74"/></g><g transform="rotate(180 80.0 80.0) translate(23.16 75.52) scale(0.6303)"><path d="M43 16 C30 18 23.6 28 23.6 37 L23.6 62 C23.6 74 33 82 52 82 L50 82 C45 79 43 72 43 64 Z" fill="#C2410C"/><path d="M43 64.6 L81.3 64.6 C80 76 72 82 62 82 L50 82 C45 79 43 72 43 64.6 Z" fill="#FDBA74"/></g><g transform="rotate(270 80.0 80.0) translate(23.16 75.52) scale(0.6303)"><path d="M43 16 C30 18 23.6 28 23.6 37 L23.6 62 C23.6 74 33 82 52 82 L50 82 C45 79 43 72 43 64 Z" fill="#C2410C"/><path d="M43 64.6 L81.3 64.6 C80 76 72 82 62 82 L50 82 C45 79 43 72 43 64.6 Z" fill="#FDBA74"/></g></g></g><g transform="translate(1120 640)"><g opacity="0.32"><g transform="rotate(0 80.0 80.0) translate(23.16 75.52) scale(0.6303)"><path d="M43 16 C30 18 23.6 28 23.6 37 L23.6 62 C23.6 74 33 82 52 82 L50 82 C45 79 43 72 43 64 Z" fill="#C2410C"/><path d="M43 64.6 L81.3 64.6 C80 76 72 82 62 82 L50 82 C45 79 43 72 43 64.6 Z" fill="#FDBA74"/></g><g transform="rotate(90 80.0 80.0) translate(23.16 75.52) scale(0.6303)"><path d="M43 16 C30 18 23.6 28 23.6 37 L23.6 62 C23.6 74 33 82 52 82 L50 82 C45 79 43 72 43 64 Z" fill="#C2410C"/><path d="M43 64.6 L81.3 64.6 C80 76 72 82 62 82 L50 82 C45 79 43 72 43 64.6 Z" fill="#FDBA74"/></g><g transform="rotate(180 80.0 80.0) translate(23.16 75.52) scale(0.6303)"><path d="M43 16 C30 18 23.6 28 23.6 37 L23.6 62 C23.6 74 33 82 52 82 L50 82 C45 79 43 72 43 64 Z" fill="#C2410C"/><path d="M43 64.6 L81.3 64.6 C80 76 72 82 62 82 L50 82 C45 79 43 72 43 64.6 Z" fill="#FDBA74"/></g><g transform="rotate(270 80.0 80.0) translate(23.16 75.52) scale(0.6303)"><path d="M43 16 C30 18 23.6 28 23.6 37 L23.6 62 C23.6 74 33 82 52 82 L50 82 C45 79 43 72 43 64 Z" fill="#C2410C"/><path d="M43 64.6 L81.3 64.6 C80 76 72 82 62 82 L50 82 C45 79 43 72 43 64.6 Z" fill="#FDBA74"/></g></g></g><g transform="translate(1120 800)"><g opacity="0.32"><g transform="rotate(0 80.0 80.0) translate(23.16 75.52) scale(0.6303)"><path d="M43 16 C30 18 23.6 28 23.6 37 L23.6 62 C23.6 74 33 82 52 82 L50 82 C45 79 43 72 43 64 Z" fill="#C2410C"/><path d="M43 64.6 L81.3 64.6 C80 76 72 82 62 82 L50 82 C45 79 43 72 43 64.6 Z" fill="#FDBA74"/></g><g transform="rotate(90 80.0 80.0) translate(23.16 75.52) scale(0.6303)"><path d="M43 16 C30 18 23.6 28 23.6 37 L23.6 62 C23.6 74 33 82 52 82 L50 82 C45 79 43 72 43 64 Z" fill="#C2410C"/><path d="M43 64.6 L81.3 64.6 C80 76 72 82 62 82 L50 82 C45 79 43 72 43 64.6 Z" fill="#FDBA74"/></g><g transform="rotate(180 80.0 80.0) translate(23.16 75.52) scale(0.6303)"><path d="M43 16 C30 18 23.6 28 23.6 37 L23.6 62 C23.6 74 33 82 52 82 L50 82 C45 79 43 72 43 64 Z" fill="#C2410C"/><path d="M43 64.6 L81.3 64.6 C80 76 72 82 62 82 L50 82 C45 79 43 72 43 64.6 Z" fill="#FDBA74"/></g><g transform="rotate(270 80.0 80.0) translate(23.16 75.52) scale(0.6303)"><path d="M43 16 C30 18 23.6 28 23.6 37 L23.6 62 C23.6 74 33 82 52 82 L50 82 C45 79 43 72 43 64 Z" fill="#C2410C"/><path d="M43 64.6 L81.3 64.6 C80 76 72 82 62 82 L50 82 C45 79 43 72 43 64.6 Z" fill="#FDBA74"/></g></g></g><g transform="translate(1280 0)"><g opacity="0.32"><g transform="rotate(0 80.0 80.0) translate(23.16 75.52) scale(0.6303)"><path d="M43 16 C30 18 23.6 28 23.6 37 L23.6 62 C23.6 74 33 82 52 82 L50 82 C45 79 43 72 43 64 Z" fill="#C2410C"/><path d="M43 64.6 L81.3 64.6 C80 76 72 82 62 82 L50 82 C45 79 43 72 43 64.6 Z" fill="#FDBA74"/></g><g transform="rotate(90 80.0 80.0) translate(23.16 75.52) scale(0.6303)"><path d="M43 16 C30 18 23.6 28 23.6 37 L23.6 62 C23.6 74 33 82 52 82 L50 82 C45 79 43 72 43 64 Z" fill="#C2410C"/><path d="M43 64.6 L81.3 64.6 C80 76 72 82 62 82 L50 82 C45 79 43 72 43 64.6 Z" fill="#FDBA74"/></g><g transform="rotate(180 80.0 80.0) translate(23.16 75.52) scale(0.6303)"><path d="M43 16 C30 18 23.6 28 23.6 37 L23.6 62 C23.6 74 33 82 52 82 L50 82 C45 79 43 72 43 64 Z" fill="#C2410C"/><path d="M43 64.6 L81.3 64.6 C80 76 72 82 62 82 L50 82 C45 79 43 72 43 64.6 Z" fill="#FDBA74"/></g><g transform="rotate(270 80.0 80.0) translate(23.16 75.52) scale(0.6303)"><path d="M43 16 C30 18 23.6 28 23.6 37 L23.6 62 C23.6 74 33 82 52 82 L50 82 C45 79 43 72 43 64 Z" fill="#C2410C"/><path d="M43 64.6 L81.3 64.6 C80 76 72 82 62 82 L50 82 C45 79 43 72 43 64.6 Z" fill="#FDBA74"/></g></g></g><g transform="translate(1280 160)"><g opacity="0.32"><g transform="rotate(0 80.0 80.0) translate(23.16 75.52) scale(0.6303)"><path d="M43 16 C30 18 23.6 28 23.6 37 L23.6 62 C23.6 74 33 82 52 82 L50 82 C45 79 43 72 43 64 Z" fill="#C2410C"/><path d="M43 64.6 L81.3 64.6 C80 76 72 82 62 82 L50 82 C45 79 43 72 43 64.6 Z" fill="#FDBA74"/></g><g transform="rotate(90 80.0 80.0) translate(23.16 75.52) scale(0.6303)"><path d="M43 16 C30 18 23.6 28 23.6 37 L23.6 62 C23.6 74 33 82 52 82 L50 82 C45 79 43 72 43 64 Z" fill="#C2410C"/><path d="M43 64.6 L81.3 64.6 C80 76 72 82 62 82 L50 82 C45 79 43 72 43 64.6 Z" fill="#FDBA74"/></g><g transform="rotate(180 80.0 80.0) translate(23.16 75.52) scale(0.6303)"><path d="M43 16 C30 18 23.6 28 23.6 37 L23.6 62 C23.6 74 33 82 52 82 L50 82 C45 79 43 72 43 64 Z" fill="#C2410C"/><path d="M43 64.6 L81.3 64.6 C80 76 72 82 62 82 L50 82 C45 79 43 72 43 64.6 Z" fill="#FDBA74"/></g><g transform="rotate(270 80.0 80.0) translate(23.16 75.52) scale(0.6303)"><path d="M43 16 C30 18 23.6 28 23.6 37 L23.6 62 C23.6 74 33 82 52 82 L50 82 C45 79 43 72 43 64 Z" fill="#C2410C"/><path d="M43 64.6 L81.3 64.6 C80 76 72 82 62 82 L50 82 C45 79 43 72 43 64.6 Z" fill="#FDBA74"/></g></g></g><g transform="translate(1280 320)"><g opacity="0.32"><g transform="rotate(0 80.0 80.0) translate(23.16 75.52) scale(0.6303)"><path d="M43 16 C30 18 23.6 28 23.6 37 L23.6 62 C23.6 74 33 82 52 82 L50 82 C45 79 43 72 43 64 Z" fill="#C2410C"/><path d="M43 64.6 L81.3 64.6 C80 76 72 82 62 82 L50 82 C45 79 43 72 43 64.6 Z" fill="#FDBA74"/></g><g transform="rotate(90 80.0 80.0) translate(23.16 75.52) scale(0.6303)"><path d="M43 16 C30 18 23.6 28 23.6 37 L23.6 62 C23.6 74 33 82 52 82 L50 82 C45 79 43 72 43 64 Z" fill="#C2410C"/><path d="M43 64.6 L81.3 64.6 C80 76 72 82 62 82 L50 82 C45 79 43 72 43 64.6 Z" fill="#FDBA74"/></g><g transform="rotate(180 80.0 80.0) translate(23.16 75.52) scale(0.6303)"><path d="M43 16 C30 18 23.6 28 23.6 37 L23.6 62 C23.6 74 33 82 52 82 L50 82 C45 79 43 72 43 64 Z" fill="#C2410C"/><path d="M43 64.6 L81.3 64.6 C80 76 72 82 62 82 L50 82 C45 79 43 72 43 64.6 Z" fill="#FDBA74"/></g><g transform="rotate(270 80.0 80.0) translate(23.16 75.52) scale(0.6303)"><path d="M43 16 C30 18 23.6 28 23.6 37 L23.6 62 C23.6 74 33 82 52 82 L50 82 C45 79 43 72 43 64 Z" fill="#C2410C"/><path d="M43 64.6 L81.3 64.6 C80 76 72 82 62 82 L50 82 C45 79 43 72 43 64.6 Z" fill="#FDBA74"/></g></g></g><g transform="translate(1280 480)"><g opacity="0.32"><g transform="rotate(0 80.0 80.0) translate(23.16 75.52) scale(0.6303)"><path d="M43 16 C30 18 23.6 28 23.6 37 L23.6 62 C23.6 74 33 82 52 82 L50 82 C45 79 43 72 43 64 Z" fill="#C2410C"/><path d="M43 64.6 L81.3 64.6 C80 76 72 82 62 82 L50 82 C45 79 43 72 43 64.6 Z" fill="#FDBA74"/></g><g transform="rotate(90 80.0 80.0) translate(23.16 75.52) scale(0.6303)"><path d="M43 16 C30 18 23.6 28 23.6 37 L23.6 62 C23.6 74 33 82 52 82 L50 82 C45 79 43 72 43 64 Z" fill="#C2410C"/><path d="M43 64.6 L81.3 64.6 C80 76 72 82 62 82 L50 82 C45 79 43 72 43 64.6 Z" fill="#FDBA74"/></g><g transform="rotate(180 80.0 80.0) translate(23.16 75.52) scale(0.6303)"><path d="M43 16 C30 18 23.6 28 23.6 37 L23.6 62 C23.6 74 33 82 52 82 L50 82 C45 79 43 72 43 64 Z" fill="#C2410C"/><path d="M43 64.6 L81.3 64.6 C80 76 72 82 62 82 L50 82 C45 79 43 72 43 64.6 Z" fill="#FDBA74"/></g><g transform="rotate(270 80.0 80.0) translate(23.16 75.52) scale(0.6303)"><path d="M43 16 C30 18 23.6 28 23.6 37 L23.6 62 C23.6 74 33 82 52 82 L50 82 C45 79 43 72 43 64 Z" fill="#C2410C"/><path d="M43 64.6 L81.3 64.6 C80 76 72 82 62 82 L50 82 C45 79 43 72 43 64.6 Z" fill="#FDBA74"/></g></g></g><g transform="translate(1280 640)"><g opacity="0.32"><g transform="rotate(0 80.0 80.0) translate(23.16 75.52) scale(0.6303)"><path d="M43 16 C30 18 23.6 28 23.6 37 L23.6 62 C23.6 74 33 82 52 82 L50 82 C45 79 43 72 43 64 Z" fill="#C2410C"/><path d="M43 64.6 L81.3 64.6 C80 76 72 82 62 82 L50 82 C45 79 43 72 43 64.6 Z" fill="#FDBA74"/></g><g transform="rotate(90 80.0 80.0) translate(23.16 75.52) scale(0.6303)"><path d="M43 16 C30 18 23.6 28 23.6 37 L23.6 62 C23.6 74 33 82 52 82 L50 82 C45 79 43 72 43 64 Z" fill="#C2410C"/><path d="M43 64.6 L81.3 64.6 C80 76 72 82 62 82 L50 82 C45 79 43 72 43 64.6 Z" fill="#FDBA74"/></g><g transform="rotate(180 80.0 80.0) translate(23.16 75.52) scale(0.6303)"><path d="M43 16 C30 18 23.6 28 23.6 37 L23.6 62 C23.6 74 33 82 52 82 L50 82 C45 79 43 72 43 64 Z" fill="#C2410C"/><path d="M43 64.6 L81.3 64.6 C80 76 72 82 62 82 L50 82 C45 79 43 72 43 64.6 Z" fill="#FDBA74"/></g><g transform="rotate(270 80.0 80.0) translate(23.16 75.52) scale(0.6303)"><path d="M43 16 C30 18 23.6 28 23.6 37 L23.6 62 C23.6 74 33 82 52 82 L50 82 C45 79 43 72 43 64 Z" fill="#C2410C"/><path d="M43 64.6 L81.3 64.6 C80 76 72 82 62 82 L50 82 C45 79 43 72 43 64.6 Z" fill="#FDBA74"/></g></g></g><g transform="translate(1280 800)"><g opacity="0.32"><g transform="rotate(0 80.0 80.0) translate(23.16 75.52) scale(0.6303)"><path d="M43 16 C30 18 23.6 28 23.6 37 L23.6 62 C23.6 74 33 82 52 82 L50 82 C45 79 43 72 43 64 Z" fill="#C2410C"/><path d="M43 64.6 L81.3 64.6 C80 76 72 82 62 82 L50 82 C45 79 43 72 43 64.6 Z" fill="#FDBA74"/></g><g transform="rotate(90 80.0 80.0) translate(23.16 75.52) scale(0.6303)"><path d="M43 16 C30 18 23.6 28 23.6 37 L23.6 62 C23.6 74 33 82 52 82 L50 82 C45 79 43 72 43 64 Z" fill="#C2410C"/><path d="M43 64.6 L81.3 64.6 C80 76 72 82 62 82 L50 82 C45 79 43 72 43 64.6 Z" fill="#FDBA74"/></g><g transform="rotate(180 80.0 80.0) translate(23.16 75.52) scale(0.6303)"><path d="M43 16 C30 18 23.6 28 23.6 37 L23.6 62 C23.6 74 33 82 52 82 L50 82 C45 79 43 72 43 64 Z" fill="#C2410C"/><path d="M43 64.6 L81.3 64.6 C80 76 72 82 62 82 L50 82 C45 79 43 72 43 64.6 Z" fill="#FDBA74"/></g><g transform="rotate(270 80.0 80.0) translate(23.16 75.52) scale(0.6303)"><path d="M43 16 C30 18 23.6 28 23.6 37 L23.6 62 C23.6 74 33 82 52 82 L50 82 C45 79 43 72 43 64 Z" fill="#C2410C"/><path d="M43 64.6 L81.3 64.6 C80 76 72 82 62 82 L50 82 C45 79 43 72 43 64.6 Z" fill="#FDBA74"/></g></g></g><g transform="translate(1440 0)"><g opacity="0.32"><g transform="rotate(0 80.0 80.0) translate(23.16 75.52) scale(0.6303)"><path d="M43 16 C30 18 23.6 28 23.6 37 L23.6 62 C23.6 74 33 82 52 82 L50 82 C45 79 43 72 43 64 Z" fill="#C2410C"/><path d="M43 64.6 L81.3 64.6 C80 76 72 82 62 82 L50 82 C45 79 43 72 43 64.6 Z" fill="#FDBA74"/></g><g transform="rotate(90 80.0 80.0) translate(23.16 75.52) scale(0.6303)"><path d="M43 16 C30 18 23.6 28 23.6 37 L23.6 62 C23.6 74 33 82 52 82 L50 82 C45 79 43 72 43 64 Z" fill="#C2410C"/><path d="M43 64.6 L81.3 64.6 C80 76 72 82 62 82 L50 82 C45 79 43 72 43 64.6 Z" fill="#FDBA74"/></g><g transform="rotate(180 80.0 80.0) translate(23.16 75.52) scale(0.6303)"><path d="M43 16 C30 18 23.6 28 23.6 37 L23.6 62 C23.6 74 33 82 52 82 L50 82 C45 79 43 72 43 64 Z" fill="#C2410C"/><path d="M43 64.6 L81.3 64.6 C80 76 72 82 62 82 L50 82 C45 79 43 72 43 64.6 Z" fill="#FDBA74"/></g><g transform="rotate(270 80.0 80.0) translate(23.16 75.52) scale(0.6303)"><path d="M43 16 C30 18 23.6 28 23.6 37 L23.6 62 C23.6 74 33 82 52 82 L50 82 C45 79 43 72 43 64 Z" fill="#C2410C"/><path d="M43 64.6 L81.3 64.6 C80 76 72 82 62 82 L50 82 C45 79 43 72 43 64.6 Z" fill="#FDBA74"/></g></g></g><g transform="translate(1440 160)"><g opacity="0.32"><g transform="rotate(0 80.0 80.0) translate(23.16 75.52) scale(0.6303)"><path d="M43 16 C30 18 23.6 28 23.6 37 L23.6 62 C23.6 74 33 82 52 82 L50 82 C45 79 43 72 43 64 Z" fill="#C2410C"/><path d="M43 64.6 L81.3 64.6 C80 76 72 82 62 82 L50 82 C45 79 43 72 43 64.6 Z" fill="#FDBA74"/></g><g transform="rotate(90 80.0 80.0) translate(23.16 75.52) scale(0.6303)"><path d="M43 16 C30 18 23.6 28 23.6 37 L23.6 62 C23.6 74 33 82 52 82 L50 82 C45 79 43 72 43 64 Z" fill="#C2410C"/><path d="M43 64.6 L81.3 64.6 C80 76 72 82 62 82 L50 82 C45 79 43 72 43 64.6 Z" fill="#FDBA74"/></g><g transform="rotate(180 80.0 80.0) translate(23.16 75.52) scale(0.6303)"><path d="M43 16 C30 18 23.6 28 23.6 37 L23.6 62 C23.6 74 33 82 52 82 L50 82 C45 79 43 72 43 64 Z" fill="#C2410C"/><path d="M43 64.6 L81.3 64.6 C80 76 72 82 62 82 L50 82 C45 79 43 72 43 64.6 Z" fill="#FDBA74"/></g><g transform="rotate(270 80.0 80.0) translate(23.16 75.52) scale(0.6303)"><path d="M43 16 C30 18 23.6 28 23.6 37 L23.6 62 C23.6 74 33 82 52 82 L50 82 C45 79 43 72 43 64 Z" fill="#C2410C"/><path d="M43 64.6 L81.3 64.6 C80 76 72 82 62 82 L50 82 C45 79 43 72 43 64.6 Z" fill="#FDBA74"/></g></g></g><g transform="translate(1440 320)"><g opacity="0.32"><g transform="rotate(0 80.0 80.0) translate(23.16 75.52) scale(0.6303)"><path d="M43 16 C30 18 23.6 28 23.6 37 L23.6 62 C23.6 74 33 82 52 82 L50 82 C45 79 43 72 43 64 Z" fill="#C2410C"/><path d="M43 64.6 L81.3 64.6 C80 76 72 82 62 82 L50 82 C45 79 43 72 43 64.6 Z" fill="#FDBA74"/></g><g transform="rotate(90 80.0 80.0) translate(23.16 75.52) scale(0.6303)"><path d="M43 16 C30 18 23.6 28 23.6 37 L23.6 62 C23.6 74 33 82 52 82 L50 82 C45 79 43 72 43 64 Z" fill="#C2410C"/><path d="M43 64.6 L81.3 64.6 C80 76 72 82 62 82 L50 82 C45 79 43 72 43 64.6 Z" fill="#FDBA74"/></g><g transform="rotate(180 80.0 80.0) translate(23.16 75.52) scale(0.6303)"><path d="M43 16 C30 18 23.6 28 23.6 37 L23.6 62 C23.6 74 33 82 52 82 L50 82 C45 79 43 72 43 64 Z" fill="#C2410C"/><path d="M43 64.6 L81.3 64.6 C80 76 72 82 62 82 L50 82 C45 79 43 72 43 64.6 Z" fill="#FDBA74"/></g><g transform="rotate(270 80.0 80.0) translate(23.16 75.52) scale(0.6303)"><path d="M43 16 C30 18 23.6 28 23.6 37 L23.6 62 C23.6 74 33 82 52 82 L50 82 C45 79 43 72 43 64 Z" fill="#C2410C"/><path d="M43 64.6 L81.3 64.6 C80 76 72 82 62 82 L50 82 C45 79 43 72 43 64.6 Z" fill="#FDBA74"/></g></g></g><g transform="translate(1440 480)"><g opacity="0.32"><g transform="rotate(0 80.0 80.0) translate(23.16 75.52) scale(0.6303)"><path d="M43 16 C30 18 23.6 28 23.6 37 L23.6 62 C23.6 74 33 82 52 82 L50 82 C45 79 43 72 43 64 Z" fill="#C2410C"/><path d="M43 64.6 L81.3 64.6 C80 76 72 82 62 82 L50 82 C45 79 43 72 43 64.6 Z" fill="#FDBA74"/></g><g transform="rotate(90 80.0 80.0) translate(23.16 75.52) scale(0.6303)"><path d="M43 16 C30 18 23.6 28 23.6 37 L23.6 62 C23.6 74 33 82 52 82 L50 82 C45 79 43 72 43 64 Z" fill="#C2410C"/><path d="M43 64.6 L81.3 64.6 C80 76 72 82 62 82 L50 82 C45 79 43 72 43 64.6 Z" fill="#FDBA74"/></g><g transform="rotate(180 80.0 80.0) translate(23.16 75.52) scale(0.6303)"><path d="M43 16 C30 18 23.6 28 23.6 37 L23.6 62 C23.6 74 33 82 52 82 L50 82 C45 79 43 72 43 64 Z" fill="#C2410C"/><path d="M43 64.6 L81.3 64.6 C80 76 72 82 62 82 L50 82 C45 79 43 72 43 64.6 Z" fill="#FDBA74"/></g><g transform="rotate(270 80.0 80.0) translate(23.16 75.52) scale(0.6303)"><path d="M43 16 C30 18 23.6 28 23.6 37 L23.6 62 C23.6 74 33 82 52 82 L50 82 C45 79 43 72 43 64 Z" fill="#C2410C"/><path d="M43 64.6 L81.3 64.6 C80 76 72 82 62 82 L50 82 C45 79 43 72 43 64.6 Z" fill="#FDBA74"/></g></g></g><g transform="translate(1440 640)"><g opacity="0.32"><g transform="rotate(0 80.0 80.0) translate(23.16 75.52) scale(0.6303)"><path d="M43 16 C30 18 23.6 28 23.6 37 L23.6 62 C23.6 74 33 82 52 82 L50 82 C45 79 43 72 43 64 Z" fill="#C2410C"/><path d="M43 64.6 L81.3 64.6 C80 76 72 82 62 82 L50 82 C45 79 43 72 43 64.6 Z" fill="#FDBA74"/></g><g transform="rotate(90 80.0 80.0) translate(23.16 75.52) scale(0.6303)"><path d="M43 16 C30 18 23.6 28 23.6 37 L23.6 62 C23.6 74 33 82 52 82 L50 82 C45 79 43 72 43 64 Z" fill="#C2410C"/><path d="M43 64.6 L81.3 64.6 C80 76 72 82 62 82 L50 82 C45 79 43 72 43 64.6 Z" fill="#FDBA74"/></g><g transform="rotate(180 80.0 80.0) translate(23.16 75.52) scale(0.6303)"><path d="M43 16 C30 18 23.6 28 23.6 37 L23.6 62 C23.6 74 33 82 52 82 L50 82 C45 79 43 72 43 64 Z" fill="#C2410C"/><path d="M43 64.6 L81.3 64.6 C80 76 72 82 62 82 L50 82 C45 79 43 72 43 64.6 Z" fill="#FDBA74"/></g><g transform="rotate(270 80.0 80.0) translate(23.16 75.52) scale(0.6303)"><path d="M43 16 C30 18 23.6 28 23.6 37 L23.6 62 C23.6 74 33 82 52 82 L50 82 C45 79 43 72 43 64 Z" fill="#C2410C"/><path d="M43 64.6 L81.3 64.6 C80 76 72 82 62 82 L50 82 C45 79 43 72 43 64.6 Z" fill="#FDBA74"/></g></g></g><g transform="translate(1440 800)"><g opacity="0.32"><g transform="rotate(0 80.0 80.0) translate(23.16 75.52) scale(0.6303)"><path d="M43 16 C30 18 23.6 28 23.6 37 L23.6 62 C23.6 74 33 82 52 82 L50 82 C45 79 43 72 43 64 Z" fill="#C2410C"/><path d="M43 64.6 L81.3 64.6 C80 76 72 82 62 82 L50 82 C45 79 43 72 43 64.6 Z" fill="#FDBA74"/></g><g transform="rotate(90 80.0 80.0) translate(23.16 75.52) scale(0.6303)"><path d="M43 16 C30 18 23.6 28 23.6 37 L23.6 62 C23.6 74 33 82 52 82 L50 82 C45 79 43 72 43 64 Z" fill="#C2410C"/><path d="M43 64.6 L81.3 64.6 C80 76 72 82 62 82 L50 82 C45 79 43 72 43 64.6 Z" fill="#FDBA74"/></g><g transform="rotate(180 80.0 80.0) translate(23.16 75.52) scale(0.6303)"><path d="M43 16 C30 18 23.6 28 23.6 37 L23.6 62 C23.6 74 33 82 52 82 L50 82 C45 79 43 72 43 64 Z" fill="#C2410C"/><path d="M43 64.6 L81.3 64.6 C80 76 72 82 62 82 L50 82 C45 79 43 72 43 64.6 Z" fill="#FDBA74"/></g><g transform="rotate(270 80.0 80.0) translate(23.16 75.52) scale(0.6303)"><path d="M43 16 C30 18 23.6 28 23.6 37 L23.6 62 C23.6 74 33 82 52 82 L50 82 C45 79 43 72 43 64 Z" fill="#C2410C"/><path d="M43 64.6 L81.3 64.6 C80 76 72 82 62 82 L50 82 C45 79 43 72 43 64.6 Z" fill="#FDBA74"/></g></g></g></svg>
